# Blender v2.76 (sub 0) OBJ File: 'circle_2sides.blend'
# www.blender.org
o Circle
v 0.000000 0.000000 -1.000000
v -0.098017 0.000000 -0.995185
v -0.195090 0.000000 -0.980785
v -0.290285 0.000000 -0.956940
v -0.382683 0.000000 -0.923880
v -0.471397 0.000000 -0.881921
v -0.555570 0.000000 -0.831470
v -0.634393 0.000000 -0.773010
v -0.707107 0.000000 -0.707107
v -0.773010 0.000000 -0.634393
v -0.831470 0.000000 -0.555570
v -0.881921 0.000000 -0.471397
v -0.923880 0.000000 -0.382683
v -0.956940 0.000000 -0.290285
v -0.980785 0.000000 -0.195090
v -0.995185 0.000000 -0.098017
v -1.000000 0.000000 0.000000
v -0.995185 0.000000 0.098017
v -0.980785 0.000000 0.195091
v -0.956940 0.000000 0.290285
v -0.923879 0.000000 0.382684
v -0.881921 0.000000 0.471397
v -0.831469 0.000000 0.555571
v -0.773010 0.000000 0.634394
v -0.707106 0.000000 0.707107
v -0.634393 0.000000 0.773011
v -0.555570 0.000000 0.831470
v -0.471396 0.000000 0.881922
v -0.382683 0.000000 0.923880
v -0.290284 0.000000 0.956941
v -0.195090 0.000000 0.980785
v -0.098016 0.000000 0.995185
v 0.000001 0.000000 1.000000
v 0.098018 0.000000 0.995185
v 0.195091 0.000000 0.980785
v 0.290286 0.000000 0.956940
v 0.382684 0.000000 0.923879
v 0.471398 0.000000 0.881921
v 0.555571 0.000000 0.831469
v 0.634394 0.000000 0.773010
v 0.707108 0.000000 0.707106
v 0.773011 0.000000 0.634393
v 0.831470 0.000000 0.555570
v 0.881922 0.000000 0.471396
v 0.923880 0.000000 0.382683
v 0.956940 0.000000 0.290285
v 0.980785 0.000000 0.195090
v 0.995185 0.000000 0.098017
v 1.000000 0.000000 0.000000
v 0.995185 0.000000 -0.098016
v 0.980785 0.000000 -0.195089
v 0.956941 0.000000 -0.290284
v 0.923880 0.000000 -0.382682
v 0.881922 0.000000 -0.471395
v 0.831471 0.000000 -0.555569
v 0.773012 0.000000 -0.634392
v 0.707108 0.000000 -0.707105
v 0.634395 0.000000 -0.773009
v 0.555572 0.000000 -0.831468
v 0.471399 0.000000 -0.881920
v 0.382686 0.000000 -0.923878
v 0.290288 0.000000 -0.956939
v 0.195093 0.000000 -0.980785
v 0.098021 0.000000 -0.995184
v 0.000000 0.100000 -1.000000
v -0.098017 0.100000 -0.995185
v -0.195090 0.100000 -0.980785
v -0.290285 0.100000 -0.956940
v -0.382683 0.100000 -0.923880
v -0.471397 0.100000 -0.881921
v -0.555570 0.100000 -0.831470
v -0.634393 0.100000 -0.773010
v -0.707107 0.100000 -0.707107
v -0.773010 0.100000 -0.634393
v -0.831470 0.100000 -0.555570
v -0.881921 0.100000 -0.471397
v -0.923880 0.100000 -0.382683
v -0.956940 0.100000 -0.290285
v -0.980785 0.100000 -0.195090
v -0.995185 0.100000 -0.098017
v -1.000000 0.100000 0.000000
v -0.995185 0.100000 0.098017
v -0.980785 0.100000 0.195091
v -0.956940 0.100000 0.290285
v -0.923879 0.100000 0.382684
v -0.881921 0.100000 0.471397
v -0.831469 0.100000 0.555571
v -0.773010 0.100000 0.634394
v -0.707106 0.100000 0.707107
v -0.634393 0.100000 0.773011
v -0.555570 0.100000 0.831470
v -0.471396 0.100000 0.881922
v -0.382683 0.100000 0.923880
v -0.290284 0.100000 0.956941
v -0.195090 0.100000 0.980785
v -0.098016 0.100000 0.995185
v 0.000001 0.100000 1.000000
v 0.098018 0.100000 0.995185
v 0.195091 0.100000 0.980785
v 0.290286 0.100000 0.956940
v 0.382684 0.100000 0.923879
v 0.471398 0.100000 0.881921
v 0.555571 0.100000 0.831469
v 0.634394 0.100000 0.773010
v 0.707108 0.100000 0.707106
v 0.773011 0.100000 0.634393
v 0.831470 0.100000 0.555570
v 0.881922 0.100000 0.471396
v 0.923880 0.100000 0.382683
v 0.956940 0.100000 0.290285
v 0.980785 0.100000 0.195090
v 0.995185 0.100000 0.098017
v 1.000000 0.100000 0.000000
v 0.995185 0.100000 -0.098016
v 0.980785 0.100000 -0.195089
v 0.956941 0.100000 -0.290284
v 0.923880 0.100000 -0.382682
v 0.881922 0.100000 -0.471395
v 0.831471 0.100000 -0.555569
v 0.773012 0.100000 -0.634392
v 0.707108 0.100000 -0.707105
v 0.634395 0.100000 -0.773009
v 0.555572 0.100000 -0.831468
v 0.471399 0.100000 -0.881920
v 0.382686 0.100000 -0.923878
v 0.290288 0.100000 -0.956939
v 0.195093 0.100000 -0.980785
v 0.098021 0.100000 -0.995184
vt 0.450991 0.002408
vt 0.997592 0.450991
vt 0.002408 0.549008
vt 0.886506 0.817196
vt 0.549010 0.997592
vt 0.997275 0.997546
vt 0.997008 0.997546
vt 0.997275 0.997073
vt 0.997008 0.997073
vt 0.997275 0.996600
vt 0.997008 0.996600
vt 0.997275 0.997564
vt 0.997008 0.997564
vt 0.997275 0.996655
vt 0.997008 0.996655
vt 0.997275 0.997164
vt 0.997008 0.997164
vt 0.997275 0.996491
vt 0.997008 0.996491
vt 0.997275 0.996764
vt 0.997008 0.996764
vt 0.997275 0.997255
vt 0.997008 0.997255
vt 0.997275 0.996855
vt 0.997008 0.996855
vt 0.997275 0.997364
vt 0.997008 0.997364
vt 0.997275 0.996964
vt 0.997008 0.996964
vt 0.500000 1.000000
vt 0.450990 0.997592
vt 0.402453 0.990392
vt 0.354856 0.978470
vt 0.308657 0.961939
vt 0.182802 0.886505
vt 0.264300 0.940960
vt 0.222214 0.915734
vt 0.146446 0.853553
vt 0.113494 0.817196
vt 0.084265 0.777785
vt 0.059039 0.735698
vt 0.038060 0.691341
vt 0.021530 0.645142
vt 0.009607 0.597545
vt 0.000000 0.500000
vt 0.002408 0.450991
vt 0.009607 0.402455
vt 0.021530 0.354858
vt 0.038060 0.308658
vt 0.059039 0.264302
vt 0.084265 0.222215
vt 0.113494 0.182804
vt 0.146446 0.146447
vt 0.182803 0.113495
vt 0.222215 0.084266
vt 0.264301 0.059040
vt 0.308658 0.038060
vt 0.354857 0.021530
vt 0.402454 0.009607
vt 0.500000 0.000000
vt 0.549008 0.002408
vt 0.597545 0.009607
vt 0.645142 0.021530
vt 0.691341 0.038060
vt 0.735698 0.059039
vt 0.777785 0.084265
vt 0.817196 0.113495
vt 0.853553 0.146446
vt 0.886505 0.182803
vt 0.915735 0.222215
vt 0.940961 0.264302
vt 0.961940 0.308658
vt 0.978470 0.354858
vt 0.990393 0.402455
vt 1.000000 0.500000
vt 0.997592 0.549009
vt 0.990393 0.597545
vt 0.978470 0.645142
vt 0.961940 0.691342
vt 0.940961 0.735698
vt 0.915735 0.777785
vt 0.853553 0.853553
vt 0.735698 0.940961
vt 0.817197 0.886505
vt 0.777785 0.915735
vt 0.691342 0.961940
vt 0.645142 0.978470
vt 0.597545 0.990393
vn 0.000000 -1.000000 0.000000
vn 0.000000 1.000000 -0.000000
vn 0.634400 0.000000 -0.773000
vn 0.707100 0.000000 -0.707100
vn -0.098000 0.000000 0.995200
vn -0.195100 0.000000 0.980800
vn -0.471400 0.000000 -0.881900
vn -0.382700 0.000000 -0.923900
vn 0.555600 0.000000 -0.831500
vn 0.000000 0.000000 1.000000
vn -0.555600 0.000000 -0.831500
vn 0.471400 0.000000 -0.881900
vn 0.098000 0.000000 0.995200
vn -0.634400 0.000000 -0.773000
vn 0.382700 0.000000 -0.923900
vn 0.195100 0.000000 0.980800
vn -0.707100 0.000000 -0.707100
vn 0.290300 0.000000 -0.956900
vn 0.290300 0.000000 0.956900
vn -0.773000 0.000000 -0.634400
vn 0.195100 0.000000 -0.980800
vn 0.382700 0.000000 0.923900
vn -0.831500 0.000000 -0.555600
vn 0.098000 0.000000 -0.995200
vn 0.471400 0.000000 0.881900
vn -0.881900 0.000000 -0.471400
vn 0.000000 0.000000 -1.000000
vn 0.555600 0.000000 0.831500
vn -0.923900 0.000000 -0.382700
vn 0.634400 0.000000 0.773000
vn -0.956900 0.000000 -0.290300
vn 0.707100 0.000000 0.707100
vn -0.980800 0.000000 -0.195100
vn 0.773000 0.000000 0.634400
vn -0.995200 0.000000 -0.098000
vn 0.831500 0.000000 0.555600
vn -1.000000 0.000000 0.000000
vn 0.881900 0.000000 0.471400
vn -0.995200 0.000000 0.098000
vn 0.923900 0.000000 0.382700
vn -0.980800 0.000000 0.195100
vn 0.956900 0.000000 0.290300
vn -0.956900 0.000000 0.290300
vn 0.980800 0.000000 0.195100
vn -0.923900 0.000000 0.382700
vn 0.995200 0.000000 0.098000
vn -0.881900 0.000000 0.471400
vn 1.000000 0.000000 0.000000
vn -0.831500 0.000000 0.555600
vn 0.995200 0.000000 -0.098000
vn -0.773000 0.000000 0.634400
vn 0.980800 0.000000 -0.195100
vn -0.707100 0.000000 0.707100
vn 0.956900 0.000000 -0.290300
vn -0.634400 0.000000 0.773000
vn 0.923900 0.000000 -0.382700
vn -0.555600 0.000000 0.831500
vn 0.881900 0.000000 -0.471400
vn -0.471400 0.000000 0.881900
vn -0.098000 0.000000 -0.995200
vn 0.831500 0.000000 -0.555600
vn -0.382700 0.000000 0.923900
vn -0.195100 0.000000 -0.980800
vn 0.773000 0.000000 -0.634400
vn -0.290300 0.000000 0.956900
vn -0.290300 0.000000 -0.956900
s 1
f 34/1/1 18/2/1 50/3/1
f 96/1/2 120/4/2 128/5/2
f 58/6/3 122/7/3 121/7/4
f 32/8/5 96/9/5 95/9/6
f 6/10/7 70/11/7 69/11/8
f 59/12/9 123/13/9 122/7/3
f 33/8/10 97/9/10 96/9/5
f 7/10/11 71/11/11 70/11/7
f 60/12/12 124/13/12 123/13/9
f 34/8/13 98/9/13 97/9/10
f 8/10/14 72/11/14 71/11/11
f 61/12/15 125/13/15 124/13/12
f 35/8/16 99/9/16 98/9/13
f 9/14/17 73/15/17 72/11/14
f 62/12/18 126/13/18 125/13/15
f 36/8/19 100/9/19 99/9/16
f 10/14/20 74/15/20 73/15/17
f 63/12/21 127/13/21 126/13/18
f 37/16/22 101/17/22 100/9/19
f 11/14/23 75/15/23 74/15/20
f 64/18/24 128/19/24 127/19/21
f 38/16/25 102/17/25 101/17/22
f 12/14/26 76/15/26 75/15/23
f 1/18/27 65/19/27 128/19/24
f 39/16/28 103/17/28 102/17/25
f 13/14/29 77/15/29 76/15/26
f 40/16/30 104/17/30 103/17/28
f 14/14/31 78/15/31 77/15/29
f 41/16/32 105/17/32 104/17/30
f 15/20/33 79/21/33 78/15/31
f 42/22/34 106/23/34 105/17/32
f 16/20/35 80/21/35 79/21/33
f 43/22/36 107/23/36 106/23/34
f 17/20/37 81/21/37 80/21/35
f 44/22/38 108/23/38 107/23/36
f 18/20/39 82/21/39 81/21/37
f 45/22/40 109/23/40 108/23/38
f 19/20/41 83/21/41 82/21/39
f 46/22/42 110/23/42 109/23/40
f 20/24/43 84/25/43 83/21/41
f 47/22/44 111/23/44 110/23/42
f 21/24/45 85/25/45 84/25/43
f 48/26/46 112/27/46 111/23/44
f 22/24/47 86/25/47 85/25/45
f 49/26/48 113/27/48 112/27/46
f 23/24/49 87/25/49 86/25/47
f 50/26/50 114/27/50 113/27/48
f 24/24/51 88/25/51 87/25/49
f 51/26/52 115/27/52 114/27/50
f 25/24/53 89/25/53 88/25/51
f 52/26/54 116/27/54 115/27/52
f 26/28/55 90/29/55 89/25/53
f 53/6/56 117/7/56 116/27/54
f 27/28/57 91/29/57 90/29/55
f 54/6/58 118/7/58 117/7/56
f 28/28/59 92/29/59 91/29/57
f 2/18/60 66/19/60 65/19/27
f 55/6/61 119/7/61 118/7/58
f 29/28/62 93/29/62 92/29/59
f 3/18/63 67/19/63 66/19/60
f 56/6/64 120/7/64 119/7/61
f 30/28/65 94/29/65 93/29/62
f 4/10/66 68/11/66 67/19/63
f 57/6/4 121/7/4 120/7/64
f 31/8/6 95/9/6 94/29/65
f 5/10/8 69/11/8 68/11/66
f 2/5/1 1/30/1 64/31/1
f 64/31/1 63/32/1 62/33/1
f 62/33/1 61/34/1 58/35/1
f 60/36/1 59/37/1 58/35/1
f 58/35/1 57/38/1 56/39/1
f 56/39/1 55/40/1 54/41/1
f 54/41/1 53/42/1 52/43/1
f 52/43/1 51/44/1 54/41/1
f 50/3/1 49/45/1 48/46/1
f 48/46/1 47/47/1 50/3/1
f 46/48/1 45/49/1 44/50/1
f 44/50/1 43/51/1 42/52/1
f 42/52/1 41/53/1 40/54/1
f 40/54/1 39/55/1 38/56/1
f 38/56/1 37/57/1 34/1/1
f 36/58/1 35/59/1 34/1/1
f 34/1/1 33/60/1 32/61/1
f 32/61/1 31/62/1 30/63/1
f 30/63/1 29/64/1 28/65/1
f 28/65/1 27/66/1 26/67/1
f 26/67/1 25/68/1 24/69/1
f 24/69/1 23/70/1 26/67/1
f 22/71/1 21/72/1 20/73/1
f 20/73/1 19/74/1 18/2/1
f 18/2/1 17/75/1 16/76/1
f 16/76/1 15/77/1 14/78/1
f 14/78/1 13/79/1 10/4/1
f 12/80/1 11/81/1 10/4/1
f 10/4/1 9/82/1 6/83/1
f 8/84/1 7/85/1 6/83/1
f 6/83/1 5/86/1 4/87/1
f 4/87/1 3/88/1 6/83/1
f 2/5/1 64/31/1 58/35/1
f 61/34/1 60/36/1 58/35/1
f 58/35/1 56/39/1 54/41/1
f 54/41/1 51/44/1 50/3/1
f 50/3/1 47/47/1 46/48/1
f 46/48/1 44/50/1 42/52/1
f 42/52/1 40/54/1 38/56/1
f 37/57/1 36/58/1 34/1/1
f 34/1/1 32/61/1 26/67/1
f 30/63/1 28/65/1 26/67/1
f 26/67/1 23/70/1 22/71/1
f 22/71/1 20/73/1 26/67/1
f 18/2/1 16/76/1 14/78/1
f 13/79/1 12/80/1 10/4/1
f 9/82/1 8/84/1 6/83/1
f 6/83/1 3/88/1 2/5/1
f 64/31/1 62/33/1 58/35/1
f 58/35/1 54/41/1 2/5/1
f 50/3/1 46/48/1 42/52/1
f 42/52/1 38/56/1 50/3/1
f 32/61/1 30/63/1 26/67/1
f 26/67/1 20/73/1 18/2/1
f 18/2/1 14/78/1 2/5/1
f 10/4/1 6/83/1 2/5/1
f 2/5/1 54/41/1 50/3/1
f 50/3/1 38/56/1 34/1/1
f 34/1/1 26/67/1 18/2/1
f 14/78/1 10/4/1 2/5/1
f 2/5/1 50/3/1 18/2/1
f 128/5/2 65/30/2 66/31/2
f 66/31/2 67/32/2 128/5/2
f 68/33/2 69/34/2 70/36/2
f 70/36/2 71/37/2 72/35/2
f 72/35/2 73/38/2 74/39/2
f 74/39/2 75/40/2 76/41/2
f 76/41/2 77/42/2 80/3/2
f 78/43/2 79/44/2 80/3/2
f 80/3/2 81/45/2 84/48/2
f 82/46/2 83/47/2 84/48/2
f 84/48/2 85/49/2 88/52/2
f 86/50/2 87/51/2 88/52/2
f 88/52/2 89/53/2 90/54/2
f 90/54/2 91/55/2 92/56/2
f 92/56/2 93/57/2 94/58/2
f 94/58/2 95/59/2 96/1/2
f 96/1/2 97/60/2 100/63/2
f 98/61/2 99/62/2 100/63/2
f 100/63/2 101/64/2 104/67/2
f 102/65/2 103/66/2 104/67/2
f 104/67/2 105/68/2 106/69/2
f 106/69/2 107/70/2 108/71/2
f 108/71/2 109/72/2 110/73/2
f 110/73/2 111/74/2 112/2/2
f 112/2/2 113/75/2 114/76/2
f 114/76/2 115/77/2 116/78/2
f 116/78/2 117/79/2 118/80/2
f 118/80/2 119/81/2 120/4/2
f 120/4/2 121/82/2 122/84/2
f 122/84/2 123/85/2 124/83/2
f 124/83/2 125/86/2 128/5/2
f 126/87/2 127/88/2 128/5/2
f 128/5/2 67/32/2 68/33/2
f 68/33/2 70/36/2 128/5/2
f 72/35/2 74/39/2 76/41/2
f 77/42/2 78/43/2 80/3/2
f 81/45/2 82/46/2 84/48/2
f 85/49/2 86/50/2 88/52/2
f 88/52/2 90/54/2 92/56/2
f 92/56/2 94/58/2 96/1/2
f 97/60/2 98/61/2 100/63/2
f 101/64/2 102/65/2 104/67/2
f 104/67/2 106/69/2 108/71/2
f 108/71/2 110/73/2 104/67/2
f 112/2/2 114/76/2 120/4/2
f 116/78/2 118/80/2 120/4/2
f 120/4/2 122/84/2 128/5/2
f 125/86/2 126/87/2 128/5/2
f 128/5/2 70/36/2 72/35/2
f 72/35/2 76/41/2 80/3/2
f 80/3/2 84/48/2 88/52/2
f 88/52/2 92/56/2 80/3/2
f 96/1/2 100/63/2 104/67/2
f 104/67/2 110/73/2 112/2/2
f 114/76/2 116/78/2 120/4/2
f 122/84/2 124/83/2 128/5/2
f 128/5/2 72/35/2 80/3/2
f 80/3/2 92/56/2 96/1/2
f 96/1/2 104/67/2 112/2/2
f 112/2/2 120/4/2 96/1/2
f 128/5/2 80/3/2 96/1/2
f 57/6/4 58/6/3 121/7/4
f 31/8/6 32/8/5 95/9/6
f 5/10/8 6/10/7 69/11/8
f 58/6/3 59/12/9 122/7/3
f 32/8/5 33/8/10 96/9/5
f 6/10/7 7/10/11 70/11/7
f 59/12/9 60/12/12 123/13/9
f 33/8/10 34/8/13 97/9/10
f 7/10/11 8/10/14 71/11/11
f 60/12/12 61/12/15 124/13/12
f 34/8/13 35/8/16 98/9/13
f 8/10/14 9/14/17 72/11/14
f 61/12/15 62/12/18 125/13/15
f 35/8/16 36/8/19 99/9/16
f 9/14/17 10/14/20 73/15/17
f 62/12/18 63/12/21 126/13/18
f 36/8/19 37/16/22 100/9/19
f 10/14/20 11/14/23 74/15/20
f 63/18/21 64/18/24 127/19/21
f 37/16/22 38/16/25 101/17/22
f 11/14/23 12/14/26 75/15/23
f 64/18/24 1/18/27 128/19/24
f 38/16/25 39/16/28 102/17/25
f 12/14/26 13/14/29 76/15/26
f 39/16/28 40/16/30 103/17/28
f 13/14/29 14/14/31 77/15/29
f 40/16/30 41/16/32 104/17/30
f 14/14/31 15/20/33 78/15/31
f 41/16/32 42/22/34 105/17/32
f 15/20/33 16/20/35 79/21/33
f 42/22/34 43/22/36 106/23/34
f 16/20/35 17/20/37 80/21/35
f 43/22/36 44/22/38 107/23/36
f 17/20/37 18/20/39 81/21/37
f 44/22/38 45/22/40 108/23/38
f 18/20/39 19/20/41 82/21/39
f 45/22/40 46/22/42 109/23/40
f 19/20/41 20/24/43 83/21/41
f 46/22/42 47/22/44 110/23/42
f 20/24/43 21/24/45 84/25/43
f 47/22/44 48/26/46 111/23/44
f 21/24/45 22/24/47 85/25/45
f 48/26/46 49/26/48 112/27/46
f 22/24/47 23/24/49 86/25/47
f 49/26/48 50/26/50 113/27/48
f 23/24/49 24/24/51 87/25/49
f 50/26/50 51/26/52 114/27/50
f 24/24/51 25/24/53 88/25/51
f 51/26/52 52/26/54 115/27/52
f 25/24/53 26/28/55 89/25/53
f 52/26/54 53/6/56 116/27/54
f 26/28/55 27/28/57 90/29/55
f 53/6/56 54/6/58 117/7/56
f 27/28/57 28/28/59 91/29/57
f 1/18/27 2/18/60 65/19/27
f 54/6/58 55/6/61 118/7/58
f 28/28/59 29/28/62 92/29/59
f 2/18/60 3/18/63 66/19/60
f 55/6/61 56/6/64 119/7/61
f 29/28/62 30/28/65 93/29/62
f 3/18/63 4/10/66 67/19/63
f 56/6/64 57/6/4 120/7/64
f 30/28/65 31/8/6 94/29/65
f 4/10/66 5/10/8 68/11/66
