# Blender v2.76 (sub 0) OBJ File: 'hexatoken.blend'
# www.blender.org
o Circle
v 1.000000 0.000000 -0.000000
v 0.500000 0.000000 -0.866026
v -0.500000 0.000000 -0.866025
v -1.000000 0.000000 0.000000
v -0.500000 0.000000 0.866026
v 0.500000 0.000000 0.866025
v 0.500000 0.100000 -0.866026
v 1.000000 0.100000 -0.000000
v -0.500000 0.100000 -0.866025
v -1.000000 0.100000 0.000000
v -0.500000 0.100000 0.866026
v 0.500000 0.100000 0.866025
vt 0.750000 0.000000
vt 0.000000 0.500000
vt 0.750000 1.000000
vt 0.250000 0.000000
vt 0.297966 0.042584
vt 0.297658 0.042584
vt 0.297658 0.042430
vt 0.297966 0.042276
vt 0.297658 0.042276
vt 0.297658 0.042122
vt 0.297966 0.041967
vt 0.297658 0.041967
vt 0.297658 0.041813
vt 0.297966 0.041813
vt 0.297658 0.041659
vt 0.297966 0.042430
vt 0.297966 0.042122
vt 1.000000 0.500000
vt 0.250000 1.000000
vt 0.297966 0.041659
vn 0.000000 -1.000000 0.000000
vn 0.000000 1.000000 0.000000
vn 0.500000 0.000000 0.866000
vn 0.000000 0.000000 1.000000
vn -1.000000 0.000000 0.000000
vn -0.500000 0.000000 -0.866000
vn 0.866000 0.000000 -0.500000
vn 0.866000 0.000000 0.500000
vn -0.866000 0.000000 0.500000
vn -0.000000 0.000000 -1.000000
s 1
f 6/1/1 4/2/1 2/3/1
f 7/3/2 11/4/2 12/1/2
f 6/5/3 12/6/3 11/7/4
f 4/8/5 10/9/5 9/10/6
f 2/11/7 7/12/7 8/13/7
f 1/14/8 8/13/8 12/15/3
f 5/16/9 11/7/9 10/9/5
f 3/17/6 9/10/6 7/12/10
f 2/3/1 1/18/1 6/1/1
f 6/1/1 5/4/1 4/2/1
f 4/2/1 3/19/1 2/3/1
f 12/1/2 8/18/2 7/3/2
f 7/3/2 9/19/2 10/2/2
f 10/2/2 11/4/2 7/3/2
f 5/16/4 6/5/3 11/7/4
f 3/17/6 4/8/5 9/10/6
f 1/14/7 2/11/7 8/13/7
f 6/20/3 1/14/8 12/15/3
f 4/8/5 5/16/9 10/9/5
f 2/11/10 3/17/6 7/12/10
