# Blender v2.76 (sub 0) OBJ File: 'map.blend'
# www.blender.org
o map2
v -27.343596 0.000000 18.000000
v 27.343596 0.000000 18.000000
v -27.343596 0.000000 -18.000000
v 27.343596 0.000000 -18.000000
v -27.343596 0.100000 -18.000000
v -27.343596 0.100000 18.000000
v 27.343596 0.100000 18.000000
v 27.343596 0.100000 -18.000000
vt 1.000000 1.000000
vt 0.000000 1.000000
vt 0.000000 0.000000
vt 1.000000 0.000000
vt 0.691346 0.312886
vt 0.691374 0.312886
vt 0.691374 0.312973
vt 0.691346 0.312833
vt 0.691374 0.312833
vt 0.691346 0.312973
vn 0.000000 -1.000000 0.000000
vn 0.000000 1.000000 0.000000
vn -1.000000 0.000000 0.000000
vn 0.000000 0.000000 -1.000000
vn 0.000000 0.000000 1.000000
vn 1.000000 0.000000 0.000000
s 1
f 3/1/1 4/2/1 2/3/1
f 7/4/2 8/1/2 5/2/2
f 1/5/3 6/6/3 5/6/3
f 3/5/4 5/6/4 8/7/4
f 2/8/5 7/9/5 6/6/5
f 4/8/6 8/9/6 7/9/6
f 1/4/1 3/1/1 2/3/1
f 6/3/2 7/4/2 5/2/2
f 3/5/3 1/5/3 5/6/3
f 4/10/4 3/5/4 8/7/4
f 1/5/5 2/8/5 6/6/5
f 2/8/6 4/8/6 7/9/6
