# Blender v2.76 (sub 0) OBJ File: 'elder_sheet.blend'
# www.blender.org
o shub1p
v -1.527571 0.000000 2.000000
v -1.587571 0.000000 1.940000
v -1.550532 0.000000 1.995433
v -1.569997 0.000000 1.982426
v -1.583003 0.000000 1.962961
v 1.587571 0.000000 1.940000
v 1.527571 0.000000 2.000000
v 1.583003 0.000000 1.962961
v 1.569997 0.000000 1.982426
v 1.550532 0.000000 1.995433
v -1.587571 0.000000 -1.940000
v -1.527571 0.000000 -2.000000
v -1.583003 0.000000 -1.962961
v -1.569997 0.000000 -1.982426
v -1.550532 0.000000 -1.995433
v 1.527571 0.000000 -2.000000
v 1.587571 0.000000 -1.940000
v 1.550532 0.000000 -1.995433
v 1.569997 0.000000 -1.982426
v 1.583003 0.000000 -1.962961
v -1.527571 0.010000 -2.000000
v -1.587571 0.010000 -1.940000
v -1.550532 0.010000 -1.995433
v -1.569997 0.010000 -1.982426
v -1.583003 0.010000 -1.962961
v -1.587571 0.010000 1.940000
v -1.527571 0.010000 2.000000
v -1.583003 0.010000 1.962961
v -1.569997 0.010000 1.982426
v -1.550532 0.010000 1.995433
v 1.527571 0.010000 2.000000
v 1.587571 0.010000 1.940000
v 1.550532 0.010000 1.995433
v 1.569997 0.010000 1.982426
v 1.583003 0.010000 1.962961
v 1.587571 0.010000 -1.940000
v 1.527571 0.010000 -2.000000
v 1.583003 0.010000 -1.962961
v 1.569997 0.010000 -1.982426
v 1.550532 0.010000 -1.995433
vt 0.043911 0.926049
vt 0.043920 0.665882
vt 0.240539 0.665882
vt 0.502297 0.926049
vt 0.502296 0.665882
vt 0.698911 0.665882
vt 0.704946 0.926049
vt 0.704938 0.665882
vt 0.954637 0.665882
vt 0.492081 0.605011
vt 0.026266 0.613983
vt 0.017294 0.605011
vt 0.246561 0.926049
vt 0.246566 0.665882
vt 0.496270 0.665882
vt 0.700418 0.665882
vt 0.700426 0.926049
vt 0.701925 0.665882
vt 0.701933 0.926049
vt 0.703431 0.665882
vt 0.703440 0.926049
vt 0.042404 0.926049
vt 0.042414 0.665882
vt 0.040898 0.926049
vt 0.040907 0.665882
vt 0.039391 0.926049
vt 0.039400 0.665882
vt 0.956162 0.926049
vt 0.954655 0.926049
vt 0.242046 0.665882
vt 0.242041 0.926049
vt 0.243552 0.665882
vt 0.243547 0.926049
vt 0.245059 0.665882
vt 0.245054 0.926049
vt 0.500790 0.926049
vt 0.500790 0.665882
vt 0.499283 0.926049
vt 0.499283 0.665882
vt 0.497777 0.926049
vt 0.497777 0.665882
vt 0.496270 0.926049
vt 0.507919 0.605011
vt 0.507919 0.024824
vt 0.982706 0.605011
vt 0.240534 0.926049
vt 0.698920 0.926049
vt 0.017294 0.024824
vt 0.483109 0.015852
vt 0.492081 0.024825
vt 0.017977 0.021391
vt 0.019922 0.018480
vt 0.022833 0.016535
vt 0.026266 0.015852
vt 0.486543 0.016536
vt 0.489453 0.018480
vt 0.491398 0.021391
vt 0.491398 0.608444
vt 0.489453 0.611355
vt 0.486543 0.613300
vt 0.483109 0.613983
vt 0.022833 0.613300
vt 0.019922 0.611355
vt 0.017977 0.608444
vt 0.956143 0.665882
vt 0.516891 0.015853
vt 0.973734 0.015853
vt 0.982706 0.024825
vt 0.977167 0.016535
vt 0.980078 0.018480
vt 0.982023 0.021391
vt 0.982023 0.608444
vt 0.980078 0.611355
vt 0.977168 0.613300
vt 0.973734 0.613983
vt 0.516891 0.613983
vt 0.513458 0.613300
vt 0.510547 0.611355
vt 0.508602 0.608444
vt 0.508602 0.021391
vt 0.510547 0.018480
vt 0.513458 0.016535
vn 0.098000 0.000000 0.995200
vn -0.098000 0.000000 0.995200
vn -0.098000 0.000000 -0.995200
vn 0.098000 0.000000 -0.995200
vn 0.995200 0.000000 -0.098000
vn 0.995200 0.000000 0.098000
vn 0.000000 1.000000 -0.000000
vn -0.995200 0.000000 0.098000
vn -0.995200 0.000000 -0.098000
vn 0.382700 0.000000 -0.923900
vn 0.707100 0.000000 -0.707100
vn 0.923900 0.000000 -0.382700
vn 0.382700 0.000000 0.923900
vn 0.707100 0.000000 0.707100
vn 0.923900 0.000000 0.382700
vn -0.382700 0.000000 0.923900
vn -0.707100 0.000000 0.707100
vn -0.923900 0.000000 0.382700
vn -0.382700 0.000000 -0.923900
vn -0.707100 0.000000 -0.707100
vn -0.923900 0.000000 -0.382700
vn 0.000000 -1.000000 0.000000
s 1
f 7/1/1 31/2/1 27/3/2
f 12/4/3 21/5/3 37/6/4
f 17/7/5 36/8/5 32/9/6
f 36/10/7 21/11/7 22/12/7
f 2/13/8 26/14/8 22/15/9
f 37/6/4 40/16/10 18/17/10
f 40/16/10 39/18/11 19/19/11
f 39/18/11 38/20/12 20/21/12
f 38/20/12 36/8/5 17/7/5
f 7/1/1 10/22/13 33/23/13
f 10/22/13 9/24/14 34/25/14
f 9/24/14 8/26/15 35/27/15
f 8/28/15 6/29/6 32/9/6
f 27/3/2 30/30/16 3/31/16
f 30/30/16 29/32/17 4/33/17
f 29/32/17 28/34/18 5/35/18
f 28/34/18 26/14/8 2/13/8
f 12/4/3 15/36/19 23/37/19
f 15/36/19 14/38/20 24/39/20
f 14/38/20 13/40/21 25/41/21
f 13/40/21 11/42/9 22/15/9
f 17/43/22 6/44/22 11/45/22
f 1/46/2 7/1/1 27/3/2
f 16/47/4 12/4/3 37/6/4
f 6/29/6 17/7/5 32/9/6
f 26/48/7 31/49/7 32/50/7
f 28/51/7 29/52/7 30/53/7
f 30/53/7 27/54/7 26/48/7
f 31/49/7 33/55/7 34/56/7
f 34/56/7 35/57/7 32/50/7
f 32/50/7 36/10/7 22/12/7
f 38/58/7 39/59/7 40/60/7
f 40/60/7 37/61/7 38/58/7
f 21/11/7 23/62/7 24/63/7
f 24/63/7 25/64/7 21/11/7
f 26/48/7 28/51/7 30/53/7
f 27/54/7 31/49/7 26/48/7
f 34/56/7 32/50/7 31/49/7
f 38/58/7 37/61/7 36/10/7
f 21/11/7 25/64/7 22/12/7
f 26/48/7 32/50/7 22/12/7
f 36/10/7 37/61/7 21/11/7
f 11/42/9 2/13/8 22/15/9
f 16/47/4 37/6/4 18/17/10
f 18/17/10 40/16/10 19/19/11
f 19/19/11 39/18/11 20/21/12
f 20/21/12 38/20/12 17/7/5
f 31/2/1 7/1/1 33/23/13
f 33/23/13 10/22/13 34/25/14
f 34/25/14 9/24/14 35/27/15
f 35/65/15 8/28/15 32/9/6
f 1/46/2 27/3/2 3/31/16
f 3/31/16 30/30/16 4/33/17
f 4/33/17 29/32/17 5/35/18
f 5/35/18 28/34/18 2/13/8
f 21/5/3 12/4/3 23/37/19
f 23/37/19 15/36/19 24/39/20
f 24/39/20 14/38/20 25/41/21
f 25/41/21 13/40/21 22/15/9
f 7/66/22 1/67/22 2/68/22
f 3/69/22 4/70/22 5/71/22
f 5/71/22 2/68/22 1/67/22
f 11/45/22 13/72/22 14/73/22
f 14/73/22 15/74/22 12/75/22
f 12/75/22 16/76/22 17/43/22
f 18/77/22 19/78/22 20/79/22
f 20/79/22 17/43/22 18/77/22
f 6/44/22 8/80/22 9/81/22
f 9/81/22 10/82/22 6/44/22
f 1/67/22 3/69/22 5/71/22
f 2/68/22 6/44/22 7/66/22
f 14/73/22 12/75/22 11/45/22
f 18/77/22 17/43/22 16/76/22
f 6/44/22 10/82/22 7/66/22
f 2/68/22 11/45/22 6/44/22
f 12/75/22 17/43/22 11/45/22
