<?xml version="1.0" encoding="UTF-8" standalone="no"?>
<!-- Created with Inkscape (http://www.inkscape.org/) -->

<svg
   width="722.23767"
   height="764.86737"
   viewBox="0 0 191.09205 202.37117"
   version="1.1"
   id="svg5"
   inkscape:version="1.1.2 (0a00cf5339, 2022-02-04, custom)"
   sodipodi:docname="health.svg"
   inkscape:export-filename="C:\Users\Snebjorn\Repos\ttp-eldritch-horror\assets\01 Core\Health\health 09.png"
   inkscape:export-xdpi="48.455803"
   inkscape:export-ydpi="48.455803"
   xmlns:inkscape="http://www.inkscape.org/namespaces/inkscape"
   xmlns:sodipodi="http://sodipodi.sourceforge.net/DTD/sodipodi-0.dtd"
   xmlns:xlink="http://www.w3.org/1999/xlink"
   xmlns="http://www.w3.org/2000/svg"
   xmlns:svg="http://www.w3.org/2000/svg"
   xmlns:rdf="http://www.w3.org/1999/02/22-rdf-syntax-ns#"
   xmlns:cc="http://creativecommons.org/ns#"
   xmlns:dc="http://purl.org/dc/elements/1.1/">
  <title
     id="title90214">Health Token</title>
  <sodipodi:namedview
     id="namedview7"
     pagecolor="#ffffff"
     bordercolor="#666666"
     borderopacity="1.0"
     inkscape:pageshadow="2"
     inkscape:pageopacity="0"
     inkscape:pagecheckerboard="true"
     inkscape:document-units="px"
     showgrid="false"
     units="px"
     fit-margin-top="0"
     fit-margin-left="0"
     fit-margin-right="0"
     fit-margin-bottom="0"
     showborder="true"
     borderlayer="false"
     inkscape:showpageshadow="false"
     inkscape:zoom="1.0998546"
     inkscape:cx="261.85279"
     inkscape:cy="383.68708"
     inkscape:window-width="2560"
     inkscape:window-height="1377"
     inkscape:window-x="-8"
     inkscape:window-y="-8"
     inkscape:window-maximized="1"
     inkscape:current-layer="g77946" />
  <defs
     id="defs2">
    <symbol
       id="symbol7596">
      <path
         style="fill:#c40001;fill-opacity:1;stroke-width:0.264583"
         d="m 132.16811,242.73222 c -4.91957,-0.30187 -12.40011,-1.65158 -18.05082,-3.25692 -12.71471,-3.61218 -31.451319,-11.10988 -41.480429,-16.59894 -5.70872,-3.12445 -13.98029,-9.03783 -16.0464,-11.47164 -6.66804,-7.85472 -15.1906,-28.96481 -15.74804,-39.0074 -0.23452,-4.22478 0.63737,-13.83801 2.69662,-29.73254 1.05573,-8.14874 1.18245,-8.42333 3.76069,-8.14903 2.12072,0.22561 4.62011,1.12528 6.24007,2.24614 4.56953,3.16169 6.7536,4.50418 9.6601,5.93784 2.98048,1.47014 3.44457,1.62002 5.35951,1.73087 3.23158,0.18708 10.72885,-0.72008 14.01589,-1.6959 2.82097,-0.83745 7.20033,-3.39361 9.50084,-5.54546 0.813646,-0.76107 1.490116,-1.71678 1.859696,-2.62738 0.48894,-1.20467 0.73078,-1.48067 1.52794,-1.74376 1.32992,-0.43891 4.715263,-0.15079 8.300263,0.70642 3.485,0.8333 3.99321,0.77196 8.10286,-0.97803 4.61882,-1.9668 10.60018,-3.16315 16.20017,-3.24026 2.90308,-0.04 4.01157,0.36075 7.48893,2.70725 9.08305,6.12918 15.80057,15.28758 23.20222,31.633 3.39685,7.50143 4.26055,10.98943 5.03585,20.33712 0.41098,4.95515 0.19698,17.22742 -0.38621,22.14809 -0.53656,4.52729 -1.55447,11.09918 -2.5613,16.53646 -1.73367,9.36256 -3.47609,14.0111 -6.17712,16.47968 -2.52201,2.30498 -5.378,3.05449 -13.28388,3.48611 -4.77829,0.26088 -6.30268,0.27713 -9.21745,0.0983 z m 35.85518,-15.50001 c 0.002,-0.1819 0.23613,-1.96384 0.51967,-3.95986 0.99013,-6.97008 1.1662,-10.37991 1.15832,-22.43232 -0.01,-15.13374 -0.47002,-22.48855 -1.84466,-29.48584 -3.27524,-16.67189 -10.83785,-28.6932 -27.67869,-43.99723 -4.69138,-4.26327 -5.11138,-5.01456 -4.89149,-8.74984 0.17183,-2.91887 0.76761,-4.94719 2.03184,-6.91732 1.0748,-1.67493 2.06153,-2.21839 3.99582,-2.20078 3.44605,0.0314 16.4676,4.51671 22.20714,7.64934 7.54702,4.11916 12.91643,9.97995 14.67023,16.01283 1.19347,4.10538 1.27899,6.00282 1.39919,31.04405 0.11145,23.21745 -0.0674,32.13744 -0.74433,37.11639 -1.17759,8.66179 -5.58763,21.85051 -8.44614,25.25912 -0.61308,0.73106 -1.0359,0.99219 -1.60655,0.99219 -0.44541,0 -0.77273,-0.14052 -0.77035,-0.33073 z M 32.777601,171.52184 c -1.70698,-2.64906 -4.31836,-7.77645 -6.74788,-13.2493 -3.5623,-8.02461 -4.11506,-10.47247 -4.16174,-18.43006 l -0.0311,-5.30276 1.25055,-2.50245 c 1.84854,-3.69906 2.14079,-5.28334 1.97465,-10.70453 -0.17395,-5.67595 -1.17047,-11.57585 -3.6645,-21.695829 -1.69439,-6.87527 -1.40886,-10.79682 1.06092,-14.57117 2.05886,-3.146378 3.29311,-3.817374 7.02178,-3.817374 h 2.50101 l 0.14075,0.727604 c 0.52611,2.719668 0.69934,6.453177 0.63531,13.69219 -0.0672,7.597919 -0.0276,8.450699 0.53775,11.577409 0.87456,4.8368 1.91124,8.88022 3.73811,14.58002 0.87978,2.74492 1.73474,5.76673 1.89989,6.71513 0.50295,2.88813 0.16223,6.50832 -1.17679,12.50348 -1.95379,8.74763 -2.39652,12.36135 -2.96444,24.19651 -0.22311,4.6496 -0.4342,8.48235 -0.46908,8.51723 -0.0349,0.0349 -0.73021,-0.97136 -1.54517,-2.2361 z m 36.90205,-31.8931 c -5.59794,-1.86348 -14.11123,-7.36158 -14.10742,-9.11094 0.002,-0.83866 0.97509,-2.06207 3.4268,-4.30751 4.65147,-4.26014 6.87572,-7.60203 7.86244,-11.81311 0.52234,-2.22919 0.61699,-7.88104 0.36018,-21.507149 -0.17787,-9.437354 0.22737,-10.494333 4.95052,-12.912458 1.41975,-0.726871 4.54589,-2.097138 6.94698,-3.045031 7.78813,-3.074569 24.682779,-9.10913 26.821599,-9.580343 2.53056,-0.557516 4.69314,-0.415927 6.42073,0.420384 1.4403,0.697238 4.07724,3.298052 4.76408,4.698801 0.55525,1.132382 0.57794,3.089407 0.0485,4.18642 l -0.36391,0.754105 -5.02104,-0.08613 c -4.39268,-0.07535 -5.27975,-0.01823 -7.08847,0.456525 -6.248003,1.639964 -9.867753,6.064001 -10.371483,12.675987 -0.24783,3.2531 -0.36147,3.66642 -1.32516,4.81988 -1.125996,1.34774 -2.341296,3.88056 -2.789636,5.813949 -0.23834,1.02777 -0.38789,5.65192 -0.50917,15.7427 -0.19364,16.11193 -0.19696,16.14 -2.15486,18.26408 -1.15898,1.25734 -2.85733,2.06852 -8.16662,3.90059 -4.033,1.39167 -6.86257,1.57514 -9.70409,0.62925 z M 115.30093,74.569006 c 0.52533,-0.420293 0.3916,-1.075513 -0.4917,-2.409055 -0.94432,-1.425665 -2.8476,-2.683722 -3.66678,-2.423724 -1.15533,0.366686 -1.02393,2.946125 0.21309,4.183145 1.13482,1.134816 2.96274,1.435796 3.94539,0.649634 z m -13.83488,54.620304 c -3.763933,-1.57863 -5.448573,-4.39079 -7.004783,-11.69303 -1.21129,-5.68376 -0.99645,-9.56374 0.84937,-15.3395 1.53371,-4.799131 2.85492,-6.774939 5.458223,-8.162479 2.47155,-1.31733 7.70429,-2.20737 9.74574,-1.65766 3.76911,1.01491 7.07898,8.366069 8.29037,18.412769 0.38676,3.20759 0.93832,5.10787 2.29828,7.91829 1.24002,2.56257 1.45716,4.08313 0.73111,5.11971 -0.93078,1.32887 -1.69849,0.78276 -5.61518,-3.99434 -3.49767,-4.26603 -4.66612,-7.23194 -4.99455,-12.67779 -0.18384,-3.04831 -0.69516,-4.43567 -1.6348,-4.43567 -0.78406,0 -2.55825,1.43814 -3.04836,2.47095 -1.47916,3.11712 -0.89604,7.72936 1.44366,11.41869 0.93552,1.47515 3.6972,4.89578 3.95266,4.89578 0.3035,0 0.75894,1.27354 0.91871,2.56904 0.25074,2.03302 -0.37732,2.94849 -2.6488,3.86094 -4.32722,1.73823 -6.80758,2.10547 -8.74165,1.2943 z m -56.475259,-1.72016 c -0.859,-0.42825 -1.24496,-1.52246 -3.45745,-9.8018 -3.16323,-11.83713 -4.2694,-18.659861 -4.29598,-26.497109 -0.0257,-7.569758 0.86567,-11.894705 3.67359,-17.824822 5.86339,-12.38301 15.53075,-18.68943 30.04229,-19.597843 9.36941,-0.58652 16.5362,0.845093 21.81543,4.357772 2.165776,1.441059 6.723396,5.915676 6.723396,6.600949 0,0.508411 -3.27221,1.719432 -9.739406,3.604485 -14.32765,4.176204 -16.8392,5.038849 -21.33468,7.327844 -2.21456,1.127607 -3.3093,1.883228 -4.6527,3.21142 -3.79093,3.748034 -4.43306,7.600505 -2.75233,16.512575 1.02056,5.411469 1.31903,9.496309 0.95151,13.022089 -0.54117,5.19169 -2.40655,10.32877 -4.63402,12.76161 -1.37828,1.50537 -4.28935,3.42485 -7.71233,5.0853 -3.09454,1.50114 -3.74803,1.67591 -4.62732,1.23753 z m 84.531489,-5.78244 c -3.35446,-1.84109 -5.49958,-7.47751 -7.13305,-18.74251 -0.82679,-5.701801 -1.30272,-6.784489 -4.48736,-10.208259 l -2.23522,-2.40305 2.01685,-1.565699 c 1.10927,-0.861136 4.33673,-3.321645 7.17213,-5.467796 4.99467,-3.780539 5.17145,-3.88769 5.67456,-3.439584 0.61032,0.5436 5.2098,6.577203 5.2098,6.83423 0,0.09658 -0.96543,1.374661 -2.1454,2.840189 -2.14034,2.65832 -3.12451,4.2595 -2.81087,4.57314 0.0911,0.0911 1.41596,-0.086 2.94412,-0.39355 3.8596,-0.7768 4.28448,-0.75086 4.92477,0.30069 0.28797,0.47294 1.0014,2.28753 1.58539,4.032408 l 1.0618,3.172531 -0.59709,0.45311 c -0.32841,0.24921 -2.52,1.60319 -4.8702,3.00885 l -4.27311,2.55575 -0.0982,6.51862 c -0.0765,5.07439 -0.1849,6.69015 -0.4894,7.29284 -0.46022,0.91088 -0.73338,1.03113 -1.4495,0.63809 z M 100.13973,87.399929 c 0.85085,-2.249808 3.53916,-4.034896 6.07647,-4.034896 1.91486,0 4.5037,1.736977 3.81881,2.56222 -0.81652,0.983842 -3.24727,1.511975 -4.9158,1.068059 -0.96025,-0.255479 -1.37746,-0.214905 -2.92918,0.284864 -2.18141,0.702569 -2.272733,0.707903 -2.0503,0.119753 z M 30.900211,68.770136 c -6.68234,-8.756242 -11.59445,-16.742055 -12.34048,-20.06243 -0.3414,-1.519441 0.25778,-4.151077 1.41714,-6.224211 1.22387,-2.188488 3.72781,-5.514359 5.27225,-7.002894 1.51014,-1.455478 1.63002,-1.405845 3.54199,1.466517 4.60029,6.911025 8.30041,17.711826 8.33327,24.325208 0.0121,2.439128 -0.062,2.834791 -0.9492,5.064464 -0.52929,1.330245 -1.10146,3.294776 -1.2715,4.365624 -0.17005,1.070846 -0.39812,2.04679 -0.50684,2.168763 -0.10872,0.121971 -1.68221,-1.723498 -3.49663,-4.101041 z m 11.33483,-10.392373 c -0.70537,-1.486455 -10.29587,-29.067779 -11.05581,-31.795414 -0.16232,-0.582623 2.33537,-3.626144 4.01909,-4.897402 3.34223,-2.523467 9.109,-4.99491 11.65494,-4.99491 1.38805,0 4.5523,0.862299 7.74527,2.110686 l 2.77624,1.085458 3.62811,9.712865 c 4.41342,11.815249 6.47461,17.653267 6.47461,18.338387 0,0.700209 -0.85363,0.994455 -4.56273,1.572762 -7.60656,1.185984 -11.12579,2.859498 -17.64058,8.388694 -0.90016,0.763984 -1.85504,1.389062 -2.12194,1.389062 -0.29291,0 -0.65651,-0.360815 -0.9172,-0.910188 z"
         id="path39" />
    </symbol>
  </defs>
  <g
     inkscape:groupmode="layer"
     id="layer5"
     inkscape:label="background"
     transform="translate(-4.9833395,-31.527464)"
     style="display:inline"
     sodipodi:insensitive="true">
    <path
       style="fill:#ffffff;stroke:#ffffff;stroke-width:0.264583px;stroke-linecap:butt;stroke-linejoin:miter;stroke-opacity:1"
       d="M 5.6339488,64.122248 9.6426726,54.167722 13.023214,44.244599 36.778223,32.650462 53.031882,57.679031 c 0,0 4.250162,6.51589 9.520338,7.487125 4.761047,0.877408 21.341833,-0.128194 21.341833,-0.128194 0,0 8.40523,4.2225 13.199634,3.540169 5.652153,-0.804404 9.636203,1.718817 9.636203,1.718817 0,0 4.43214,6.234144 14.75222,4.252522 2.85631,4.683372 6.48712,5.386677 6.48712,5.386677 l 8.54873,12.68589 c 0,0 5.35735,11.795353 22.41327,12.135933 14.79601,0.29545 31.53622,74.33565 31.53622,74.33565 l 2.3762,30.06097 -12.52778,15.57899 -114.267658,-20.22034 c -5.205698,-9.73896 -17.445215,-17.207 -17.445215,-17.207 L 25.96143,98.247253 26.453654,89.068772 Z"
       id="path106066"
       sodipodi:nodetypes="cccccscsccccscccccccc" />
  </g>
  <g
     inkscape:label="Health token"
     inkscape:groupmode="layer"
     id="layer1"
     style="display:inline"
     transform="translate(-4.9833395,-31.527464)"
     sodipodi:insensitive="true">
    <use
       xlink:href="#symbol7596"
       id="use7724"
       x="0"
       y="0"
       width="100%"
       height="100%"
       transform="rotate(-12.923219,102.61804,116.66376)" />
  </g>
  <g
     inkscape:groupmode="layer"
     id="layer2"
     inkscape:label="1"
     transform="translate(16.195914,-14.704308)"
     style="display:none">
    <text
       xml:space="preserve"
       style="font-size:111.584px;line-height:1.25;font-family:ARKHAM;-inkscape-font-specification:ARKHAM;fill:#ffffff;stroke:#000000;stroke-width:2.64583;stroke-miterlimit:4;stroke-dasharray:none"
       x="60.514214"
       y="191.32143"
       id="text44546"
       transform="scale(1.0525441,0.95007897)"><tspan
         sodipodi:role="line"
         id="tspan44544"
         style="font-size:111.584px;fill:#ffffff;stroke:#000000;stroke-width:2.64583;stroke-miterlimit:4;stroke-dasharray:none"
         x="60.514214"
         y="191.32143">1</tspan></text>
  </g>
  <g
     inkscape:groupmode="layer"
     id="layer3"
     inkscape:label="2"
     style="display:none"
     transform="translate(18.589794,-19.565652)">
    <text
       xml:space="preserve"
       style="font-size:111.584px;line-height:1.25;font-family:ARKHAM;-inkscape-font-specification:ARKHAM;fill:#ffffff;stroke:#000000;stroke-width:2.64583;stroke-miterlimit:4;stroke-dasharray:none"
       x="44.738152"
       y="194.98761"
       id="text58533"
       transform="scale(1.0525441,0.95007897)"><tspan
         sodipodi:role="line"
         id="tspan58531"
         style="fill:#ffffff;stroke:#000000;stroke-width:2.64583;stroke-miterlimit:4;stroke-dasharray:none"
         x="44.738152"
         y="194.98761">2</tspan></text>
  </g>
  <g
     inkscape:groupmode="layer"
     id="g61446"
     inkscape:label="3"
     style="display:none"
     transform="translate(18.589794,-19.565652)">
    <text
       xml:space="preserve"
       style="font-size:111.584px;line-height:1.25;font-family:ARKHAM;-inkscape-font-specification:ARKHAM;fill:#ffffff;stroke:#000000;stroke-width:2.64583;stroke-miterlimit:4;stroke-dasharray:none"
       x="44.738152"
       y="194.98761"
       id="text61444"
       transform="scale(1.0525441,0.95007897)"><tspan
         sodipodi:role="line"
         id="tspan61442"
         style="fill:#ffffff;stroke:#000000;stroke-width:2.64583;stroke-miterlimit:4;stroke-dasharray:none"
         x="44.738152"
         y="194.98761">3</tspan></text>
  </g>
  <g
     inkscape:groupmode="layer"
     id="g64432"
     inkscape:label="4"
     style="display:none"
     transform="translate(18.589794,-19.565652)">
    <text
       xml:space="preserve"
       style="font-size:111.584px;line-height:1.25;font-family:ARKHAM;-inkscape-font-specification:ARKHAM;fill:#ffffff;stroke:#000000;stroke-width:2.64583;stroke-miterlimit:4;stroke-dasharray:none"
       x="44.738152"
       y="194.98761"
       id="text64430"
       transform="scale(1.0525441,0.95007897)"><tspan
         sodipodi:role="line"
         id="tspan64428"
         style="fill:#ffffff;stroke:#000000;stroke-width:2.64583;stroke-miterlimit:4;stroke-dasharray:none"
         x="44.738152"
         y="194.98761">4</tspan></text>
  </g>
  <g
     inkscape:groupmode="layer"
     id="g68364"
     inkscape:label="5"
     style="display:none"
     transform="translate(18.589794,-19.565652)">
    <text
       xml:space="preserve"
       style="font-size:111.584px;line-height:1.25;font-family:ARKHAM;-inkscape-font-specification:ARKHAM;fill:#ffffff;stroke:#000000;stroke-width:2.64583;stroke-miterlimit:4;stroke-dasharray:none"
       x="44.738152"
       y="194.98761"
       id="text68362"
       transform="scale(1.0525441,0.95007897)"><tspan
         sodipodi:role="line"
         id="tspan68360"
         style="fill:#ffffff;stroke:#000000;stroke-width:2.64583;stroke-miterlimit:4;stroke-dasharray:none"
         x="44.738152"
         y="194.98761">5</tspan></text>
  </g>
  <g
     inkscape:groupmode="layer"
     id="g74338"
     inkscape:label="6"
     style="display:none"
     transform="translate(18.589794,-19.565652)">
    <text
       xml:space="preserve"
       style="font-size:111.584px;line-height:1.25;font-family:ARKHAM;-inkscape-font-specification:ARKHAM;fill:#ffffff;stroke:#000000;stroke-width:2.64583;stroke-miterlimit:4;stroke-dasharray:none"
       x="44.738152"
       y="194.98761"
       id="text74336"
       transform="scale(1.0525441,0.95007897)"><tspan
         sodipodi:role="line"
         id="tspan74334"
         style="fill:#ffffff;stroke:#000000;stroke-width:2.64583;stroke-miterlimit:4;stroke-dasharray:none"
         x="44.738152"
         y="194.98761">6</tspan></text>
  </g>
  <g
     inkscape:groupmode="layer"
     id="g76770"
     inkscape:label="7"
     style="display:none"
     transform="translate(18.589794,-19.565652)">
    <text
       xml:space="preserve"
       style="font-size:111.584px;line-height:1.25;font-family:ARKHAM;-inkscape-font-specification:ARKHAM;fill:#ffffff;stroke:#000000;stroke-width:2.64583;stroke-miterlimit:4;stroke-dasharray:none"
       x="44.738152"
       y="194.98761"
       id="text76768"
       transform="scale(1.0525441,0.95007897)"><tspan
         sodipodi:role="line"
         id="tspan76766"
         style="fill:#ffffff;stroke:#000000;stroke-width:2.64583;stroke-miterlimit:4;stroke-dasharray:none"
         x="44.738152"
         y="194.98761">7</tspan></text>
  </g>
  <g
     inkscape:groupmode="layer"
     id="g77946"
     inkscape:label="8"
     style="display:inline"
     transform="translate(18.589794,-19.565652)">
    <text
       xml:space="preserve"
       style="font-size:111.584px;line-height:1.25;font-family:ARKHAM;-inkscape-font-specification:ARKHAM;fill:#ffffff;stroke:#000000;stroke-width:2.64583;stroke-miterlimit:4;stroke-dasharray:none"
       x="56.688774"
       y="185.97495"
       id="text77944"
       transform="matrix(1.0482655,0.09480766,-0.08557813,0.9462169,0,0)"><tspan
         sodipodi:role="line"
         id="tspan77942"
         style="fill:#ffffff;stroke:#000000;stroke-width:2.64583;stroke-miterlimit:4;stroke-dasharray:none"
         x="56.688774"
         y="185.97495">8</tspan></text>
  </g>
  <g
     inkscape:groupmode="layer"
     id="g78956"
     inkscape:label="9"
     style="display:none"
     transform="translate(18.589794,-19.565652)">
    <text
       xml:space="preserve"
       style="font-size:111.584px;line-height:1.25;font-family:ARKHAM;-inkscape-font-specification:ARKHAM;fill:#ffffff;stroke:#000000;stroke-width:2.64583;stroke-miterlimit:4;stroke-dasharray:none"
       x="44.738152"
       y="194.98761"
       id="text78954"
       transform="scale(1.0525441,0.95007897)"><tspan
         sodipodi:role="line"
         id="tspan78952"
         style="fill:#ffffff;stroke:#000000;stroke-width:2.64583;stroke-miterlimit:4;stroke-dasharray:none"
         x="44.738152"
         y="194.98761">9</tspan></text>
  </g>
  <metadata
     id="metadata90212">
    <rdf:RDF>
      <cc:Work
         rdf:about="">
        <dc:title>Health Token</dc:title>
      </cc:Work>
    </rdf:RDF>
  </metadata>
</svg>
