<?xml version="1.0" encoding="UTF-8" standalone="no"?>
<!-- Created with Inkscape (http://www.inkscape.org/) -->

<svg
   width="235.71527mm"
   height="250.55437mm"
   viewBox="0 0 235.71527 250.55437"
   version="1.1"
   id="svg3914"
   inkscape:version="1.1 (c68e22c387, 2021-05-23)"
   sodipodi:docname="sanity.svg"
   inkscape:export-filename="C:\Users\Snebjorn\Repos\ttp-eldritch-horror\assets\01 Core\Sanity\Sanity 09.png"
   inkscape:export-xdpi="32.330002"
   inkscape:export-ydpi="32.330002"
   xmlns:inkscape="http://www.inkscape.org/namespaces/inkscape"
   xmlns:sodipodi="http://sodipodi.sourceforge.net/DTD/sodipodi-0.dtd"
   xmlns:xlink="http://www.w3.org/1999/xlink"
   xmlns="http://www.w3.org/2000/svg"
   xmlns:svg="http://www.w3.org/2000/svg"
   xmlns:rdf="http://www.w3.org/1999/02/22-rdf-syntax-ns#"
   xmlns:cc="http://creativecommons.org/ns#"
   xmlns:dc="http://purl.org/dc/elements/1.1/">
  <title
     id="title43180">Sanity Token</title>
  <sodipodi:namedview
     id="namedview3916"
     pagecolor="#ffffff"
     bordercolor="#666666"
     borderopacity="1.0"
     inkscape:pageshadow="2"
     inkscape:pageopacity="0.0"
     inkscape:pagecheckerboard="0"
     inkscape:document-units="mm"
     showgrid="false"
     fit-margin-top="0"
     fit-margin-left="0"
     fit-margin-right="0"
     fit-margin-bottom="0"
     inkscape:zoom="0.73638604"
     inkscape:cx="489.55301"
     inkscape:cy="515.35469"
     inkscape:window-width="2560"
     inkscape:window-height="1377"
     inkscape:window-x="1912"
     inkscape:window-y="-8"
     inkscape:window-maximized="1"
     inkscape:current-layer="g34754" />
  <defs
     id="defs3911">
    <symbol
       id="symbol11534">
      <path
         style="fill:#31498e;fill-opacity:1;fill-rule:nonzero;stroke:none;stroke-width:1.35798;stroke-opacity:1"
         d="m 1281.2573,998.8878 c -8.7286,-2.43265 -19.8208,-8.35403 -22.3122,-11.91103 -2.8202,-4.02648 -2.6982,-6.14816 0.8936,-15.53408 2.3881,-6.24049 5.899,-10.91247 16.6738,-22.18806 24.8168,-25.9701 25.1157,-26.51883 18.8892,-34.6822 -5.2895,-6.93479 -7.1882,-15.21511 -8.7125,-37.99416 -1.5072,-22.52536 -3.6042,-31.82901 -8.3006,-36.82815 -7.394,-7.87055 -11.6457,-3.2438 -27.9428,30.40779 -40.216,83.04113 -41.9713,86.40897 -47.7621,91.64064 -8.801,7.95121 -12.9563,7.35195 -36.176,-5.21723 -10.4565,-5.66025 -23.4858,-12.36007 -28.954,-14.88848 -12.4092,-5.73778 -18.8852,-12.15072 -56.1554,-55.60869 -15.3731,-17.92538 -31.993,-37.17479 -36.9331,-42.77648 -11.0828,-12.56683 -11.6882,-13.79527 -25.7668,-52.28236 -6.284,-17.17849 -17.3991,-46.51093 -24.70038,-65.1832 -7.30126,-18.67227 -13.19482,-35.17177 -13.0968,-36.66555 0.098,-1.49378 3.00508,-15.24336 6.46012,-30.55462 3.47815,-15.41367 6.60608,-33.12791 7.00824,-39.68943 l 0.72636,-11.85076 -4.90504,-5.42929 c -2.69777,-2.9861 -5.31158,-7.04908 -5.80846,-9.02884 -2.19531,-8.74679 5.67247,-69.34677 10.43549,-80.37734 2.02549,-4.69077 3.75823,-6.37432 8.90287,-8.65002 12.7323,-5.63212 27.5719,-0.27072 40.7285,14.71487 4.1462,4.72252 8.3747,8.58642 9.3968,8.58642 2.514,0 4.6851,-8.43501 4.6944,-18.23787 0.01,-7.8395 -0.1601,-8.2091 -6.3153,-13.94107 -6.071,-5.65361 -25.8461,-16.70846 -29.8884,-16.70846 -3.8639,0 -9.8865,-4.04396 -9.0948,-6.10689 1.438,-3.74762 10.9519,-5.16418 23.7017,-3.52909 14.8891,1.90945 23.8786,5.0257 38.0083,13.17568 8.9173,5.1435 12.8705,6.62179 18.8297,7.04135 7.5273,0.52995 7.5603,0.51515 16.0302,-7.17591 11.6677,-10.59484 11.3776,-12.39475 -2.1234,-13.17632 -9.4102,-0.54474 -12.4642,-1.48475 -26.9897,-8.30748 -14.9837,-7.03791 -25.116,-10.17383 -46.7821,-14.47902 -4.2111,-0.83678 -8.7003,-2.67477 -9.976,-4.08444 -2.8454,-3.14415 -6.9962,-26.3361 -5.6597,-31.62326 0.6129,-2.42475 3.9549,-6.03406 9.4055,-10.1579 16.1564,-12.22357 20.0961,-17.26234 24.6865,-31.57338 3.3183,-10.34522 4.693,-12.9802 6.9394,-13.30148 2.0847,-0.29815 7.547,4.60839 21.3519,19.17931 18.6705,19.70644 24.3916,23.99781 31.9931,23.99781 13.2408,0 16.5462,-19.28582 5.4679,-31.90332 -9.7863,-11.14596 -18.2127,-37.95519 -17.2553,-54.89899 0.4534,-8.02423 1.2326,-10.35243 5.7746,-17.25362 6.9385,-10.54269 33.0385,-36.69545 37.8188,-37.89523 7.2054,-1.80844 7.921,-1.35035 35.8042,22.92199 5.8761,5.11514 13.6704,10.82056 17.3207,12.67871 7.9147,4.0289 18.9887,5.44271 25.5835,3.26623 6.3357,-2.09096 17.346,-12.99214 17.346,-17.17405 0,-2.77994 -1.2124,-3.56428 -9.1756,-5.9358 -12.1814,-3.62779 -18.6507,-7.99808 -35.4868,-23.97297 l -14.1078,-13.38611 11.3918,-5.27044 c 6.2655,-2.89875 18.4855,-7.59428 27.1556,-10.43451 8.67,-2.84024 17.0939,-5.98723 18.7197,-6.99333 1.6258,-1.00609 7.0459,-7.94018 12.0447,-15.40909 10.7677,-16.08847 27.0839,-33.48115 45.8147,-48.83732 45.2964,-37.13557 66.8402,-40.9177 78.8093,-13.8354 4.4587,10.08872 8.203,14.46431 12.3774,14.46431 3.9181,0 5.796,-3.59885 10.4653,-20.05521 4.1328,-14.5652 8.6118,-24.00602 14.6547,-30.888409 4.9574,-5.646155 8.7864,-7.785795 17.9361,-10.022582 3.6257,-0.886377 12.7921,-4.249183 20.3697,-7.472903 17.8373,-7.58848 21.205,-8.120286 34.2545,-5.409228 8.633,1.793517 13.8397,2.014515 26.3734,1.119422 8.5892,-0.613398 19.5889,-1.218859 24.4437,-1.34547 4.8548,-0.126605 9.4511,-0.316715 10.2139,-0.422454 0.7629,-0.105746 5.5381,-3.218471 10.6115,-6.91718 13.4188,-9.782848 21.8697,-12.66942 37.5679,-12.832123 17.3065,-0.179372 21.2863,2.169579 37.4627,22.111247 6.657,8.206548 12.8177,14.961178 13.6904,15.01029 0.8727,0.04912 2.8628,-1.975425 4.4224,-4.498974 4.611,-7.460757 14.2508,-15.510424 19.827,-16.556537 7.8962,-1.481335 22.0728,0.380204 42.2206,5.544018 21.0276,5.389289 32.6257,10.128508 37.6552,15.386604 9.0591,9.471009 15.8893,35.020759 13.042,48.786199 -1.9377,9.3675 -7.8705,21.45202 -18.1228,36.91405 -5.7908,8.7335 -7.6093,12.67298 -7.6093,16.48485 0,5.93413 3.9512,11.60051 7.2156,10.34784 1.2137,-0.46572 5.2106,-6.83134 8.8822,-14.14579 11.1187,-22.15082 25.3939,-38.64002 35.1391,-40.58907 9.8821,-1.97643 21.3293,8.17188 46.6038,41.31585 35.8651,47.03208 35.3703,46.13985 36.2517,65.36994 0.8918,19.45645 -1.9181,35.04911 -8.9096,49.44243 -6.3564,13.08571 -24.5246,39.63635 -25.9954,37.98896 -0.5662,-0.63423 -1.7417,-5.63893 -2.6122,-11.12157 -2.8785,-18.12962 -7.049,-23.20148 -13.65,-16.60042 -3.5769,3.57686 -5.4023,10.49934 -7.0062,26.56885 -2.5157,25.20447 -5.4428,42.85502 -8.8501,53.36629 -4.7607,14.68634 -17.2799,39.66878 -22.6484,45.19552 -4.9994,5.14679 -59.5715,41.28071 -66.0229,43.71584 -3.6779,1.38826 -4.5877,1.13315 -9.2321,-2.58873 -14.3204,-11.47604 -18.9068,-9.7403 -25.6022,9.68925 -3.6093,10.4736 -4.2771,11.38036 -18.5903,25.24173 -16.2129,15.70113 -17.2868,18.15365 -10.2427,23.39303 4.6038,3.42437 16.432,4.54831 25.0442,2.37973 5.6958,-1.43422 6.6254,-1.33248 8.9359,0.97803 1.4183,1.41832 3.9784,8.07946 5.689,14.80253 3.7903,14.89646 8.0526,24.41885 17.9534,40.10999 13.5115,21.41363 15.4479,30.448 8.6898,40.54284 -6.3445,9.4769 -11.9015,12.464 -24.5494,13.19619 -9.6232,0.55707 -11.541,0.23927 -18.1914,-3.01449 -8.8488,-4.32928 -13.4959,-9.50059 -18.1208,-20.16482 -2.3839,-5.49668 -4.0859,-7.772 -5.5981,-7.48348 -1.7237,0.32888 -2.2544,2.56433 -2.5674,10.81434 -0.4798,12.64342 2.0452,24.21674 9.1024,41.7207 8.7558,21.71694 15.1686,57.92786 15.5353,87.72237 0.1993,16.18931 -0.7863,23.76471 -3.0918,23.76471 -0.6619,0 -3.7636,-2.13882 -6.8925,-4.75294 -3.1289,-2.61412 -6.731,-4.75294 -8.0048,-4.75294 -8.1953,0 -7.2766,14.95927 1.6185,26.35488 l 4.1418,5.30614 -2.9041,4.87874 c -1.5972,2.6833 -4.9115,8.97688 -7.3651,13.98572 -2.4536,5.00885 -5.012,8.9501 -5.6853,8.75833 -0.6733,-0.19178 -4.6576,-6.42875 -8.8539,-13.85995 -8.775,-15.53916 -12.3429,-18.51584 -32.8401,-27.39791 -19.5496,-8.47144 -18.872,-8.41818 -18.8589,-1.48217 0.022,11.41264 2.7678,29.69388 5.5957,37.25229 4.0014,10.69453 13.0735,19.69998 23.5898,23.41635 11.6863,4.12982 14.5103,5.82959 17.8032,10.71593 5.582,8.28311 5.347,22.32478 -0.7047,42.1146 -3.7385,12.22529 -8.645,19.91654 -14.4682,22.67983 -12.7137,6.03305 -23.3613,-4.34486 -21.4049,-20.86288 1.1531,-9.73695 -1.7249,-14.19572 -21.4068,-33.16363 -19.1402,-18.44592 -20.8018,-21.05139 -25.6883,-40.27897 -3.6034,-14.17897 -8.5408,-24.87537 -13.1592,-28.50824 -5.6589,-4.45128 -6.3043,-3.61412 -5.4708,7.09598 1.0547,13.55232 6.2892,29.34538 17.5672,53.00268 9.7182,20.3855 11.8243,28.78992 8.1382,32.47599 -2.8286,2.82863 -5.7876,-0.20141 -14.3184,-14.66228 -14.7411,-24.98831 -47.9066,-61.8682 -59.6806,-66.36474 -7.3766,-2.81714 -15.9058,-1.95796 -15.9058,1.60224 0,1.20801 5.9581,7.72918 13.2403,14.49152 33.0678,30.70718 46.0301,46.07974 42.471,50.3682 -0.887,1.06884 -4.8279,3.75782 -8.7574,5.97551 -3.9295,2.21768 -11.5636,8.81722 -16.9647,14.66563 -13.479,14.59558 -21.6968,31.26681 -28.0007,56.80494 -2.5811,10.45647 -4.6956,20.02747 -4.6987,21.26887 -0.01,2.77593 2.0149,2.4518 -57.7201,9.25244 -85.8299,9.77145 -110.9349,11.30565 -124.2555,7.59325 z"
         id="path11233"
         transform="scale(0.26458333)" />
    </symbol>
  </defs>
  <g
     inkscape:label="Sanity"
     inkscape:groupmode="layer"
     id="layer1"
     transform="translate(8.6305077,-17.724125)"
     sodipodi:insensitive="true"
     style="display:inline">
    <use
       xlink:href="#symbol11534"
       id="use11920"
       x="0"
       y="0"
       width="100%"
       height="100%"
       transform="translate(-268.1603,3.4987775)" />
  </g>
  <g
     inkscape:groupmode="layer"
     id="layer2"
     inkscape:label="1"
     style="display:none">
    <text
       xml:space="preserve"
       style="font-size:123.472px;line-height:1.25;font-family:ARKHAM;-inkscape-font-specification:ARKHAM;fill:#ffffff;stroke-width:0.264583"
       x="81.162582"
       y="175.09813"
       id="text14554"><tspan
         sodipodi:role="line"
         id="tspan14552"
         style="font-size:123.472px;fill:#ffffff;stroke-width:0.264583"
         x="81.162582"
         y="175.09813">1</tspan></text>
  </g>
  <g
     inkscape:groupmode="layer"
     id="g19732"
     inkscape:label="2"
     style="display:none">
    <text
       xml:space="preserve"
       style="font-size:123.472px;line-height:1.25;font-family:ARKHAM;-inkscape-font-specification:ARKHAM;fill:#ffffff;stroke-width:0.264583"
       x="66.222496"
       y="173.493"
       id="text19730"><tspan
         sodipodi:role="line"
         id="tspan19728"
         style="font-size:123.472px;fill:#ffffff;stroke-width:0.264583"
         x="66.222496"
         y="173.493">2</tspan></text>
  </g>
  <g
     inkscape:groupmode="layer"
     id="g23472"
     inkscape:label="3"
     style="display:none">
    <text
       xml:space="preserve"
       style="font-size:123.472px;line-height:1.25;font-family:ARKHAM;-inkscape-font-specification:ARKHAM;fill:#ffffff;stroke-width:0.264583"
       x="68.259758"
       y="173.73994"
       id="text23470"><tspan
         sodipodi:role="line"
         id="tspan23468"
         style="font-size:123.472px;fill:#ffffff;stroke-width:0.264583"
         x="68.259758"
         y="173.73994">3</tspan></text>
  </g>
  <g
     inkscape:groupmode="layer"
     id="g25384"
     inkscape:label="4"
     style="display:none">
    <text
       xml:space="preserve"
       style="font-size:123.472px;line-height:1.25;font-family:ARKHAM;-inkscape-font-specification:ARKHAM;fill:#ffffff;stroke-width:0.264583"
       x="66.111374"
       y="174.72772"
       id="text25382"><tspan
         sodipodi:role="line"
         id="tspan25380"
         style="font-size:123.472px;fill:#ffffff;stroke-width:0.264583"
         x="66.111374"
         y="174.72772">4</tspan></text>
  </g>
  <g
     inkscape:groupmode="layer"
     id="g27384"
     inkscape:label="5"
     style="display:none">
    <text
       xml:space="preserve"
       style="font-size:123.472px;line-height:1.25;font-family:ARKHAM;-inkscape-font-specification:ARKHAM;fill:#ffffff;stroke-width:0.264583"
       x="70.605728"
       y="174.91293"
       id="text27382"><tspan
         sodipodi:role="line"
         id="tspan27380"
         style="font-size:123.472px;fill:#ffffff;stroke-width:0.264583"
         x="70.605728"
         y="174.91293">5</tspan></text>
  </g>
  <g
     inkscape:groupmode="layer"
     id="g29308"
     inkscape:label="6"
     style="display:none">
    <text
       xml:space="preserve"
       style="font-size:123.472px;line-height:1.25;font-family:ARKHAM;-inkscape-font-specification:ARKHAM;fill:#ffffff;stroke-width:0.264583"
       x="64.246925"
       y="177.01195"
       id="text29306"><tspan
         sodipodi:role="line"
         id="tspan29304"
         style="font-size:123.472px;fill:#ffffff;stroke-width:0.264583"
         x="64.246925"
         y="177.01195">6</tspan></text>
  </g>
  <g
     inkscape:groupmode="layer"
     id="g32010"
     inkscape:label="7"
     style="display:none">
    <text
       xml:space="preserve"
       style="font-size:123.472px;line-height:1.25;font-family:ARKHAM;-inkscape-font-specification:ARKHAM;fill:#ffffff;stroke-width:0.264583"
       x="65.481667"
       y="173.39653"
       id="text32008"><tspan
         sodipodi:role="line"
         id="tspan32006"
         style="font-size:123.472px;fill:#ffffff;stroke-width:0.264583"
         x="65.481667"
         y="173.39653">7</tspan></text>
  </g>
  <g
     inkscape:groupmode="layer"
     id="g33598"
     inkscape:label="8"
     style="display:none">
    <text
       xml:space="preserve"
       style="font-size:123.472px;line-height:1.25;font-family:ARKHAM;-inkscape-font-specification:ARKHAM;fill:#ffffff;stroke-width:0.264583"
       x="63.471981"
       y="173.73994"
       id="text33596"><tspan
         sodipodi:role="line"
         id="tspan33594"
         style="font-size:123.472px;fill:#ffffff;stroke-width:0.264583"
         x="63.471981"
         y="173.73994">8</tspan></text>
  </g>
  <g
     inkscape:groupmode="layer"
     id="g34754"
     inkscape:label="9"
     style="display:inline">
    <text
       xml:space="preserve"
       style="font-size:123.472px;line-height:1.25;font-family:ARKHAM;-inkscape-font-specification:ARKHAM;fill:#ffffff;stroke-width:0.264583"
       x="65.66687"
       y="172.93738"
       id="text34752"><tspan
         sodipodi:role="line"
         id="tspan34750"
         style="font-size:123.472px;fill:#ffffff;stroke-width:0.264583"
         x="65.66687"
         y="172.93738">9</tspan></text>
  </g>
  <metadata
     id="metadata43178">
    <rdf:RDF>
      <cc:Work
         rdf:about="">
        <dc:title>Sanity Token</dc:title>
      </cc:Work>
    </rdf:RDF>
  </metadata>
</svg>
