# Blender v2.77 (sub 0) OBJ File: 'clue.blend'
# www.blender.org
o Circle
v 0.000000 0.000000 -0.600000
v -0.058810 0.000000 -0.597111
v -0.117054 0.000000 -0.588471
v -0.174171 0.000000 -0.574164
v -0.229610 0.000000 -0.554328
v -0.282838 0.000000 -0.529153
v -0.333342 0.000000 -0.498882
v -0.380636 0.000000 -0.463806
v -0.424264 0.000000 -0.424264
v -0.463806 0.000000 -0.380636
v -0.498882 0.000000 -0.333342
v -0.529153 0.000000 -0.282838
v -0.554328 0.000000 -0.229610
v -0.574164 0.000000 -0.174171
v -0.588471 0.000000 -0.117054
v -0.597111 0.000000 -0.058810
v -0.600000 0.000000 0.000000
v -0.597111 0.000000 0.058810
v -0.588471 0.000000 0.117054
v -0.574164 0.000000 0.174171
v -0.554328 0.000000 0.229610
v -0.529153 0.000000 0.282838
v -0.498882 0.000000 0.333342
v -0.463806 0.000000 0.380636
v -0.424264 0.000000 0.424264
v -0.380636 0.000000 0.463806
v -0.333342 0.000000 0.498882
v -0.282838 0.000000 0.529153
v -0.229610 0.000000 0.554328
v -0.174170 0.000000 0.574164
v -0.117054 0.000000 0.588471
v -0.058810 0.000000 0.597111
v 0.000000 0.000000 0.600000
v 0.058811 0.000000 0.597111
v 0.117055 0.000000 0.588471
v 0.174171 0.000000 0.574164
v 0.229611 0.000000 0.554327
v 0.282839 0.000000 0.529153
v 0.333343 0.000000 0.498881
v 0.380636 0.000000 0.463806
v 0.424265 0.000000 0.424264
v 0.463807 0.000000 0.380636
v 0.498882 0.000000 0.333342
v 0.529153 0.000000 0.282838
v 0.554328 0.000000 0.229610
v 0.574164 0.000000 0.174171
v 0.588471 0.000000 0.117054
v 0.597111 0.000000 0.058810
v 0.600000 0.000000 0.000000
v 0.597111 0.000000 -0.058810
v 0.588471 0.000000 -0.117054
v 0.574164 0.000000 -0.174170
v 0.554328 0.000000 -0.229609
v 0.529153 0.000000 -0.282837
v 0.498882 0.000000 -0.333341
v 0.463807 0.000000 -0.380635
v 0.424265 0.000000 -0.424263
v 0.380637 0.000000 -0.463805
v 0.333343 0.000000 -0.498881
v 0.282839 0.000000 -0.529152
v 0.229612 0.000000 -0.554327
v 0.174173 0.000000 -0.574164
v 0.117056 0.000000 -0.588471
v 0.058812 0.000000 -0.597111
v -0.058810 0.100000 -0.597111
v 0.000000 0.100000 -0.600000
v -0.117054 0.100000 -0.588471
v -0.174171 0.100000 -0.574164
v -0.229610 0.100000 -0.554328
v -0.282838 0.100000 -0.529153
v -0.333342 0.100000 -0.498882
v -0.380636 0.100000 -0.463806
v -0.424264 0.100000 -0.424264
v -0.463806 0.100000 -0.380636
v -0.498882 0.100000 -0.333342
v -0.529153 0.100000 -0.282838
v -0.554328 0.100000 -0.229610
v -0.574164 0.100000 -0.174171
v -0.588471 0.100000 -0.117054
v -0.597111 0.100000 -0.058810
v -0.600000 0.100000 0.000000
v -0.597111 0.100000 0.058810
v -0.588471 0.100000 0.117054
v -0.574164 0.100000 0.174171
v -0.554328 0.100000 0.229610
v -0.529153 0.100000 0.282838
v -0.498882 0.100000 0.333342
v -0.463806 0.100000 0.380636
v -0.424264 0.100000 0.424264
v -0.380636 0.100000 0.463806
v -0.333342 0.100000 0.498882
v -0.282838 0.100000 0.529153
v -0.229610 0.100000 0.554328
v -0.174170 0.100000 0.574164
v -0.117054 0.100000 0.588471
v -0.058810 0.100000 0.597111
v 0.000000 0.100000 0.600000
v 0.058811 0.100000 0.597111
v 0.117055 0.100000 0.588471
v 0.174171 0.100000 0.574164
v 0.229611 0.100000 0.554327
v 0.282839 0.100000 0.529153
v 0.333343 0.100000 0.498881
v 0.380636 0.100000 0.463806
v 0.424265 0.100000 0.424264
v 0.463807 0.100000 0.380636
v 0.498882 0.100000 0.333342
v 0.529153 0.100000 0.282838
v 0.554328 0.100000 0.229610
v 0.574164 0.100000 0.174171
v 0.588471 0.100000 0.117054
v 0.597111 0.100000 0.058810
v 0.600000 0.100000 0.000000
v 0.597111 0.100000 -0.058810
v 0.588471 0.100000 -0.117054
v 0.574164 0.100000 -0.174170
v 0.554328 0.100000 -0.229609
v 0.529153 0.100000 -0.282837
v 0.498882 0.100000 -0.333341
v 0.463807 0.100000 -0.380635
v 0.424265 0.100000 -0.424263
v 0.380637 0.100000 -0.463805
v 0.333343 0.100000 -0.498881
v 0.282839 0.100000 -0.529152
v 0.229612 0.100000 -0.554327
v 0.174173 0.100000 -0.574164
v 0.117056 0.100000 -0.588471
v 0.058812 0.100000 -0.597111
vt 0.224199 0.532198
vt 0.472886 0.736290
vt 0.020107 0.780885
vt 0.265419 0.036285
vt 0.446339 0.374762
vt 0.306137 0.449702
vt 0.255349 0.540829
vt 0.255426 0.539250
vt 0.255426 0.540829
vt 0.252402 0.540829
vt 0.252479 0.539250
vt 0.252479 0.540829
vt 0.254418 0.540829
vt 0.254496 0.539250
vt 0.254496 0.540829
vt 0.255271 0.540829
vt 0.255349 0.539250
vt 0.252324 0.540829
vt 0.252402 0.539250
vt 0.254341 0.540829
vt 0.254418 0.539250
vt 0.255194 0.540829
vt 0.255271 0.539250
vt 0.252246 0.540829
vt 0.252324 0.539250
vt 0.254263 0.540829
vt 0.254341 0.539250
vt 0.252169 0.540829
vt 0.252246 0.539250
vt 0.254185 0.540829
vt 0.254263 0.539250
vt 0.252091 0.540829
vt 0.252169 0.539250
vt 0.254108 0.540829
vt 0.254185 0.539250
vt 0.252014 0.540829
vt 0.252091 0.539250
vt 0.254030 0.540829
vt 0.254108 0.539250
vt 0.251936 0.540829
vt 0.252014 0.539250
vt 0.253953 0.540829
vt 0.254030 0.539250
vt 0.251859 0.540829
vt 0.251936 0.539250
vt 0.253875 0.540829
vt 0.253953 0.539250
vt 0.251781 0.540829
vt 0.251859 0.539250
vt 0.253798 0.540829
vt 0.253875 0.539250
vt 0.251703 0.540829
vt 0.251781 0.539250
vt 0.253720 0.540829
vt 0.253798 0.539250
vt 0.251626 0.540829
vt 0.251703 0.539250
vt 0.253642 0.540829
vt 0.253720 0.539250
vt 0.251548 0.540829
vt 0.251626 0.539250
vt 0.253565 0.540829
vt 0.253642 0.539250
vt 0.251471 0.540829
vt 0.251548 0.539250
vt 0.253487 0.540829
vt 0.253565 0.539250
vt 0.251393 0.540829
vt 0.251471 0.539250
vt 0.253410 0.540829
vt 0.253487 0.539250
vt 0.251316 0.540829
vt 0.251393 0.539250
vt 0.253332 0.540829
vt 0.253410 0.539250
vt 0.251238 0.540829
vt 0.251316 0.539250
vt 0.253255 0.540829
vt 0.253332 0.539250
vt 0.251161 0.540829
vt 0.251238 0.539250
vt 0.253177 0.540829
vt 0.253255 0.539250
vt 0.251083 0.540829
vt 0.251161 0.539250
vt 0.253100 0.540829
vt 0.253177 0.539250
vt 0.255116 0.540829
vt 0.255194 0.539250
vt 0.251005 0.540829
vt 0.251083 0.539250
vt 0.253022 0.540829
vt 0.253100 0.539250
vt 0.255039 0.540829
vt 0.255116 0.539250
vt 0.250928 0.540829
vt 0.251005 0.539250
vt 0.252944 0.540829
vt 0.253022 0.539250
vt 0.254961 0.540829
vt 0.255039 0.539250
vt 0.250850 0.540829
vt 0.250928 0.539250
vt 0.252867 0.540829
vt 0.252944 0.539250
vt 0.254883 0.540829
vt 0.254961 0.539250
vt 0.255737 0.540829
vt 0.255814 0.539250
vt 0.255814 0.540829
vt 0.252789 0.540829
vt 0.252867 0.539250
vt 0.254806 0.540829
vt 0.254883 0.539250
vt 0.255659 0.540829
vt 0.255737 0.539250
vt 0.252712 0.540829
vt 0.252789 0.539250
vt 0.254728 0.540829
vt 0.254806 0.539250
vt 0.255582 0.540829
vt 0.255659 0.539250
vt 0.252634 0.540829
vt 0.252712 0.539250
vt 0.254651 0.540829
vt 0.254728 0.539250
vt 0.255504 0.540829
vt 0.255582 0.539250
vt 0.252557 0.540829
vt 0.252634 0.539250
vt 0.254573 0.540829
vt 0.254651 0.539250
vt 0.255504 0.539250
vt 0.252557 0.539250
vt 0.254573 0.539250
vt 0.268794 0.984977
vt 0.246497 0.986073
vt 0.224199 0.984977
vt 0.202116 0.981701
vt 0.180461 0.976277
vt 0.159441 0.968756
vt 0.102181 0.934436
vt 0.139261 0.959211
vt 0.120112 0.947734
vt 0.085640 0.919443
vt 0.070648 0.902902
vt 0.057350 0.884971
vt 0.045873 0.865823
vt 0.036328 0.845642
vt 0.028807 0.824623
vt 0.023383 0.802967
vt 0.019012 0.758587
vt 0.020107 0.736290
vt 0.023383 0.714207
vt 0.028807 0.692552
vt 0.036328 0.671533
vt 0.045873 0.651352
vt 0.057350 0.632204
vt 0.070648 0.614273
vt 0.085640 0.597732
vt 0.102182 0.582739
vt 0.120113 0.569441
vt 0.139261 0.557964
vt 0.159442 0.548419
vt 0.180461 0.540898
vt 0.202116 0.535474
vt 0.246497 0.531103
vt 0.268794 0.532198
vt 0.290877 0.535474
vt 0.312532 0.540898
vt 0.333551 0.548419
vt 0.353732 0.557964
vt 0.372881 0.569441
vt 0.390812 0.582739
vt 0.407353 0.597731
vt 0.422345 0.614273
vt 0.435644 0.632204
vt 0.447121 0.651352
vt 0.456665 0.671533
vt 0.464186 0.692552
vt 0.469611 0.714207
vt 0.473982 0.758588
vt 0.472886 0.780885
vt 0.469611 0.802968
vt 0.464186 0.824623
vt 0.456666 0.845642
vt 0.422345 0.902902
vt 0.447121 0.865823
vt 0.435644 0.884971
vt 0.407353 0.919444
vt 0.353732 0.959212
vt 0.390812 0.934436
vt 0.372881 0.947734
vt 0.333551 0.968756
vt 0.312532 0.976277
vt 0.290877 0.981702
vt 0.285778 0.450702
vt 0.265419 0.449702
vt 0.245256 0.446711
vt 0.225483 0.441758
vt 0.206291 0.434891
vt 0.187864 0.426176
vt 0.170381 0.415697
vt 0.154008 0.403554
vt 0.138905 0.389866
vt 0.125216 0.374762
vt 0.113074 0.358390
vt 0.102595 0.340907
vt 0.093880 0.322480
vt 0.079069 0.263352
vt 0.087013 0.303288
vt 0.082060 0.283515
vt 0.078069 0.242993
vt 0.087013 0.182699
vt 0.079069 0.222634
vt 0.082060 0.202471
vt 0.093880 0.163507
vt 0.125216 0.111224
vt 0.102595 0.145080
vt 0.113074 0.127596
vt 0.138905 0.096121
vt 0.154009 0.082432
vt 0.170381 0.070290
vt 0.187864 0.059810
vt 0.206291 0.051095
vt 0.225483 0.044228
vt 0.245256 0.039276
vt 0.285778 0.035285
vt 0.346072 0.044229
vt 0.306137 0.036285
vt 0.326300 0.039276
vt 0.365265 0.051095
vt 0.417547 0.082432
vt 0.383691 0.059811
vt 0.401175 0.070290
vt 0.432650 0.096121
vt 0.446339 0.111224
vt 0.458481 0.127597
vt 0.468961 0.145080
vt 0.477676 0.163507
vt 0.484543 0.182699
vt 0.489495 0.202471
vt 0.492486 0.222634
vt 0.493486 0.242993
vt 0.492486 0.263352
vt 0.489495 0.283515
vt 0.484543 0.303288
vt 0.477676 0.322480
vt 0.468961 0.340906
vt 0.458481 0.358390
vt 0.432650 0.389865
vt 0.417547 0.403554
vt 0.401175 0.415697
vt 0.383691 0.426176
vt 0.365265 0.434891
vt 0.346073 0.441758
vt 0.326300 0.446711
vt 0.250850 0.539250
vn 0.000000 -1.000000 0.000000
vn 0.000000 1.000000 -0.000000
vn 0.195100 0.000000 -0.980800
vn 0.290300 0.000000 -0.956900
vn 0.382700 0.000000 0.923900
vn 0.290300 0.000000 0.956900
vn -0.831500 0.000000 -0.555600
vn -0.773000 0.000000 -0.634400
vn 0.098000 0.000000 -0.995200
vn 0.471400 0.000000 0.881900
vn -0.881900 0.000000 -0.471400
vn 0.000000 0.000000 -1.000000
vn 0.555600 0.000000 0.831500
vn -0.923900 0.000000 -0.382700
vn 0.634400 0.000000 0.773000
vn -0.956900 0.000000 -0.290300
vn 0.707100 0.000000 0.707100
vn -0.980800 0.000000 -0.195100
vn 0.773000 0.000000 0.634400
vn -0.995200 0.000000 -0.098000
vn 0.831500 0.000000 0.555600
vn -1.000000 0.000000 0.000000
vn 0.881900 0.000000 0.471400
vn -0.995200 0.000000 0.098000
vn 0.923900 0.000000 0.382700
vn -0.980800 0.000000 0.195100
vn 0.956900 0.000000 0.290300
vn -0.956900 0.000000 0.290300
vn 0.980800 0.000000 0.195100
vn -0.923900 0.000000 0.382700
vn 0.995200 0.000000 0.098000
vn -0.881900 0.000000 0.471400
vn 1.000000 0.000000 0.000000
vn -0.831500 0.000000 0.555600
vn 0.995200 0.000000 -0.098000
vn -0.773000 0.000000 0.634400
vn 0.980800 0.000000 -0.195100
vn -0.707100 0.000000 0.707100
vn 0.956900 0.000000 -0.290300
vn -0.634400 0.000000 0.773000
vn 0.923900 0.000000 -0.382700
vn -0.555600 0.000000 0.831500
vn 0.881900 0.000000 -0.471400
vn -0.471400 0.000000 0.881900
vn -0.098000 0.000000 -0.995200
vn 0.831500 0.000000 -0.555600
vn -0.382700 0.000000 0.923900
vn -0.195100 0.000000 -0.980800
vn 0.773000 0.000000 -0.634400
vn -0.290300 0.000000 0.956900
vn -0.290300 0.000000 -0.956900
vn 0.707100 0.000000 -0.707100
vn -0.195100 0.000000 0.980800
vn -0.382700 0.000000 -0.923900
vn 0.634400 0.000000 -0.773000
vn -0.098000 0.000000 0.995200
vn -0.471400 0.000000 -0.881900
vn 0.555600 0.000000 -0.831500
vn -0.000000 0.000000 1.000000
vn -0.555600 0.000000 -0.831500
vn 0.471400 0.000000 -0.881900
vn 0.098000 0.000000 0.995200
vn -0.634400 0.000000 -0.773000
vn 0.382700 0.000000 -0.923900
vn 0.195100 0.000000 0.980800
vn -0.707100 0.000000 -0.707100
s 1
f 34/1/1 18/2/1 50/3/1
f 96/4/2 120/5/2 128/6/2
f 63/7/3 126/8/4 62/9/4
f 37/10/5 100/11/6 36/12/6
f 11/13/7 74/14/8 10/15/8
f 64/16/9 127/17/3 63/7/3
f 38/18/10 101/19/5 37/10/5
f 12/20/11 75/21/7 11/13/7
f 1/22/12 128/23/9 64/16/9
f 39/24/13 102/25/10 38/18/10
f 13/26/14 76/27/11 12/20/11
f 40/28/15 103/29/13 39/24/13
f 14/30/16 77/31/14 13/26/14
f 41/32/17 104/33/15 40/28/15
f 15/34/18 78/35/16 14/30/16
f 42/36/19 105/37/17 41/32/17
f 16/38/20 79/39/18 15/34/18
f 43/40/21 106/41/19 42/36/19
f 17/42/22 80/43/20 16/38/20
f 44/44/23 107/45/21 43/40/21
f 18/46/24 81/47/22 17/42/22
f 45/48/25 108/49/23 44/44/23
f 19/50/26 82/51/24 18/46/24
f 46/52/27 109/53/25 45/48/25
f 20/54/28 83/55/26 19/50/26
f 47/56/29 110/57/27 46/52/27
f 21/58/30 84/59/28 20/54/28
f 48/60/31 111/61/29 47/56/29
f 22/62/32 85/63/30 21/58/30
f 49/64/33 112/65/31 48/60/31
f 23/66/34 86/67/32 22/62/32
f 50/68/35 113/69/33 49/64/33
f 24/70/36 87/71/34 23/66/34
f 51/72/37 114/73/35 50/68/35
f 25/74/38 88/75/36 24/70/36
f 52/76/39 115/77/37 51/72/37
f 26/78/40 89/79/38 25/74/38
f 53/80/41 116/81/39 52/76/39
f 27/82/42 90/83/40 26/78/40
f 54/84/43 117/85/41 53/80/41
f 28/86/44 91/87/42 27/82/42
f 2/88/45 66/89/12 1/22/12
f 55/90/46 118/91/43 54/84/43
f 29/92/47 92/93/44 28/86/44
f 3/94/48 65/95/45 2/88/45
f 56/96/49 119/97/46 55/90/46
f 30/98/50 93/99/47 29/92/47
f 4/100/51 67/101/48 3/94/48
f 57/102/52 120/103/49 56/96/49
f 31/104/53 94/105/50 30/98/50
f 5/106/54 68/107/51 4/100/51
f 58/108/55 121/109/52 57/110/52
f 32/111/56 95/112/53 31/104/53
f 6/113/57 69/114/54 5/106/54
f 59/115/58 122/116/55 58/108/55
f 33/117/59 96/118/56 32/111/56
f 7/119/60 70/120/57 6/113/57
f 60/121/61 123/122/58 59/115/58
f 34/123/62 97/124/59 33/117/59
f 8/125/63 71/126/60 7/119/60
f 61/127/64 124/128/61 60/121/61
f 35/129/65 98/130/62 34/123/62
f 9/131/66 72/132/63 8/125/63
f 62/9/4 125/133/64 61/127/64
f 36/12/6 99/134/65 35/129/65
f 10/15/8 73/135/66 9/131/66
f 2/136/1 1/137/1 64/138/1
f 64/138/1 63/139/1 62/140/1
f 62/140/1 61/141/1 58/142/1
f 60/143/1 59/144/1 58/142/1
f 58/142/1 57/145/1 56/146/1
f 56/146/1 55/147/1 54/148/1
f 54/148/1 53/149/1 52/150/1
f 52/150/1 51/151/1 54/148/1
f 50/3/1 49/152/1 48/153/1
f 48/153/1 47/154/1 50/3/1
f 46/155/1 45/156/1 44/157/1
f 44/157/1 43/158/1 42/159/1
f 42/159/1 41/160/1 40/161/1
f 40/161/1 39/162/1 38/163/1
f 38/163/1 37/164/1 34/1/1
f 36/165/1 35/166/1 34/1/1
f 34/1/1 33/167/1 32/168/1
f 32/168/1 31/169/1 30/170/1
f 30/170/1 29/171/1 28/172/1
f 28/172/1 27/173/1 26/174/1
f 26/174/1 25/175/1 24/176/1
f 24/176/1 23/177/1 26/174/1
f 22/178/1 21/179/1 20/180/1
f 20/180/1 19/181/1 18/2/1
f 18/2/1 17/182/1 16/183/1
f 16/183/1 15/184/1 14/185/1
f 14/185/1 13/186/1 10/187/1
f 12/188/1 11/189/1 10/187/1
f 10/187/1 9/190/1 6/191/1
f 8/192/1 7/193/1 6/191/1
f 6/191/1 5/194/1 4/195/1
f 4/195/1 3/196/1 6/191/1
f 2/136/1 64/138/1 58/142/1
f 61/141/1 60/143/1 58/142/1
f 58/142/1 56/146/1 54/148/1
f 54/148/1 51/151/1 50/3/1
f 50/3/1 47/154/1 46/155/1
f 46/155/1 44/157/1 42/159/1
f 42/159/1 40/161/1 38/163/1
f 37/164/1 36/165/1 34/1/1
f 34/1/1 32/168/1 26/174/1
f 30/170/1 28/172/1 26/174/1
f 26/174/1 23/177/1 22/178/1
f 22/178/1 20/180/1 26/174/1
f 18/2/1 16/183/1 14/185/1
f 13/186/1 12/188/1 10/187/1
f 9/190/1 8/192/1 6/191/1
f 6/191/1 3/196/1 2/136/1
f 64/138/1 62/140/1 58/142/1
f 58/142/1 54/148/1 2/136/1
f 50/3/1 46/155/1 42/159/1
f 42/159/1 38/163/1 50/3/1
f 32/168/1 30/170/1 26/174/1
f 26/174/1 20/180/1 18/2/1
f 18/2/1 14/185/1 2/136/1
f 10/187/1 6/191/1 2/136/1
f 2/136/1 54/148/1 50/3/1
f 50/3/1 38/163/1 34/1/1
f 34/1/1 26/174/1 18/2/1
f 14/185/1 10/187/1 2/136/1
f 2/136/1 50/3/1 18/2/1
f 128/6/2 66/197/2 65/198/2
f 65/198/2 67/199/2 128/6/2
f 68/200/2 69/201/2 70/202/2
f 70/202/2 71/203/2 72/204/2
f 72/204/2 73/205/2 74/206/2
f 74/206/2 75/207/2 76/208/2
f 76/208/2 77/209/2 80/210/2
f 78/211/2 79/212/2 80/210/2
f 80/210/2 81/213/2 84/214/2
f 82/215/2 83/216/2 84/214/2
f 84/214/2 85/217/2 88/218/2
f 86/219/2 87/220/2 88/218/2
f 88/218/2 89/221/2 90/222/2
f 90/222/2 91/223/2 92/224/2
f 92/224/2 93/225/2 94/226/2
f 94/226/2 95/227/2 96/4/2
f 96/4/2 97/228/2 100/229/2
f 98/230/2 99/231/2 100/229/2
f 100/229/2 101/232/2 104/233/2
f 102/234/2 103/235/2 104/233/2
f 104/233/2 105/236/2 106/237/2
f 106/237/2 107/238/2 108/239/2
f 108/239/2 109/240/2 110/241/2
f 110/241/2 111/242/2 112/243/2
f 112/243/2 113/244/2 114/245/2
f 114/245/2 115/246/2 116/247/2
f 116/247/2 117/248/2 118/249/2
f 118/249/2 119/250/2 120/5/2
f 120/5/2 121/251/2 122/252/2
f 122/252/2 123/253/2 124/254/2
f 124/254/2 125/255/2 128/6/2
f 126/256/2 127/257/2 128/6/2
f 128/6/2 67/199/2 68/200/2
f 68/200/2 70/202/2 128/6/2
f 72/204/2 74/206/2 76/208/2
f 77/209/2 78/211/2 80/210/2
f 81/213/2 82/215/2 84/214/2
f 85/217/2 86/219/2 88/218/2
f 88/218/2 90/222/2 92/224/2
f 92/224/2 94/226/2 96/4/2
f 97/228/2 98/230/2 100/229/2
f 101/232/2 102/234/2 104/233/2
f 104/233/2 106/237/2 108/239/2
f 108/239/2 110/241/2 104/233/2
f 112/243/2 114/245/2 120/5/2
f 116/247/2 118/249/2 120/5/2
f 120/5/2 122/252/2 128/6/2
f 125/255/2 126/256/2 128/6/2
f 128/6/2 70/202/2 72/204/2
f 72/204/2 76/208/2 80/210/2
f 80/210/2 84/214/2 88/218/2
f 88/218/2 92/224/2 80/210/2
f 96/4/2 100/229/2 104/233/2
f 104/233/2 110/241/2 112/243/2
f 114/245/2 116/247/2 120/5/2
f 122/252/2 124/254/2 128/6/2
f 128/6/2 72/204/2 80/210/2
f 80/210/2 92/224/2 96/4/2
f 96/4/2 104/233/2 112/243/2
f 112/243/2 120/5/2 96/4/2
f 128/6/2 80/210/2 96/4/2
f 63/7/3 127/17/3 126/8/4
f 37/10/5 101/19/5 100/11/6
f 11/13/7 75/21/7 74/14/8
f 64/16/9 128/23/9 127/17/3
f 38/18/10 102/25/10 101/19/5
f 12/20/11 76/27/11 75/21/7
f 1/22/12 66/89/12 128/23/9
f 39/24/13 103/29/13 102/25/10
f 13/26/14 77/31/14 76/27/11
f 40/28/15 104/33/15 103/29/13
f 14/30/16 78/35/16 77/31/14
f 41/32/17 105/37/17 104/33/15
f 15/34/18 79/39/18 78/35/16
f 42/36/19 106/41/19 105/37/17
f 16/38/20 80/43/20 79/39/18
f 43/40/21 107/45/21 106/41/19
f 17/42/22 81/47/22 80/43/20
f 44/44/23 108/49/23 107/45/21
f 18/46/24 82/51/24 81/47/22
f 45/48/25 109/53/25 108/49/23
f 19/50/26 83/55/26 82/51/24
f 46/52/27 110/57/27 109/53/25
f 20/54/28 84/59/28 83/55/26
f 47/56/29 111/61/29 110/57/27
f 21/58/30 85/63/30 84/59/28
f 48/60/31 112/65/31 111/61/29
f 22/62/32 86/67/32 85/63/30
f 49/64/33 113/69/33 112/65/31
f 23/66/34 87/71/34 86/67/32
f 50/68/35 114/73/35 113/69/33
f 24/70/36 88/75/36 87/71/34
f 51/72/37 115/77/37 114/73/35
f 25/74/38 89/79/38 88/75/36
f 52/76/39 116/81/39 115/77/37
f 26/78/40 90/83/40 89/79/38
f 53/80/41 117/85/41 116/81/39
f 27/82/42 91/87/42 90/83/40
f 54/84/43 118/91/43 117/85/41
f 28/86/44 92/93/44 91/87/42
f 2/88/45 65/95/45 66/89/12
f 55/90/46 119/97/46 118/91/43
f 29/92/47 93/99/47 92/93/44
f 3/94/48 67/101/48 65/95/45
f 56/96/49 120/103/49 119/97/46
f 30/98/50 94/105/50 93/99/47
f 4/100/51 68/107/51 67/101/48
f 57/102/52 121/258/52 120/103/49
f 31/104/53 95/112/53 94/105/50
f 5/106/54 69/114/54 68/107/51
f 58/108/55 122/116/55 121/109/52
f 32/111/56 96/118/56 95/112/53
f 6/113/57 70/120/57 69/114/54
f 59/115/58 123/122/58 122/116/55
f 33/117/59 97/124/59 96/118/56
f 7/119/60 71/126/60 70/120/57
f 60/121/61 124/128/61 123/122/58
f 34/123/62 98/130/62 97/124/59
f 8/125/63 72/132/63 71/126/60
f 61/127/64 125/133/64 124/128/61
f 35/129/65 99/134/65 98/130/62
f 9/131/66 73/135/66 72/132/63
f 62/9/4 126/8/4 125/133/64
f 36/12/6 100/11/6 99/134/65
f 10/15/8 74/14/8 73/135/66
