# Blender v2.70 (sub 0) OBJ File: 'Monster.blend'
# www.blender.org
o Plane
v 0.559700 0.000000 0.544228
v 0.559700 0.000000 -0.554200
v -0.559700 0.000000 -0.554200
v -0.559700 0.000000 0.544228
v 0.559700 0.100000 0.544228
v 0.559700 0.100000 -0.554200
v -0.559700 0.100000 -0.554200
v -0.559700 0.100000 0.544228
vt 0.484108 0.994601
vt 0.000621 0.994601
vt 0.000621 0.515464
vt 0.483487 0.485127
vt -0.000000 0.485127
vt 0.000000 0.005990
vt 1.000000 0.519348
vt 0.983881 0.504454
vt 0.986531 0.014477
vt 1.000000 0.510457
vt 0.984073 0.498737
vt 0.981833 0.017722
vt 0.983881 -0.000000
vt 1.000000 0.014895
vt 0.997346 0.504874
vt 0.991068 0.510409
vt 0.975472 0.498253
vt 0.986567 0.017355
vt 0.484108 0.515464
vt 0.483487 0.005990
vt 1.000000 0.000000
vt 0.994781 0.000000
vt 0.983877 0.519351
vn 0.000000 -1.000000 0.000000
vn 0.000000 1.000000 -0.000000
vn -0.000000 0.000000 -1.000000
vn 1.000000 0.000000 -0.000000
vn 0.000000 0.000000 1.000000
vn -1.000000 0.000000 0.000000
vn 0.000001 0.000000 1.000000
s off
f 1/1/1 4/2/1 3/3/1
f 6/4/2 7/5/2 8/6/2
f 3/7/3 7/8/3 6/9/3
f 2/10/4 6/11/4 5/12/4
f 1/13/5 5/14/5 8/15/5
f 4/16/6 8/17/6 7/18/6
f 2/19/1 1/1/1 3/3/1
f 5/20/2 6/4/2 8/6/2
f 2/21/3 3/7/3 6/9/3
f 1/22/4 2/10/4 5/12/4
f 4/23/7 1/13/7 8/15/7
f 3/21/6 4/16/6 7/18/6
