# Blender v2.76 (sub 0) OBJ File: 'circle.blend'
# www.blender.org
o Circle
v 0.000000 0.000000 -1.000000
v -0.098017 0.000000 -0.995185
v -0.195090 0.000000 -0.980785
v -0.290285 0.000000 -0.956940
v -0.382683 0.000000 -0.923880
v -0.471397 0.000000 -0.881921
v -0.555570 0.000000 -0.831470
v -0.634393 0.000000 -0.773010
v -0.707107 0.000000 -0.707107
v -0.773010 0.000000 -0.634393
v -0.831470 0.000000 -0.555570
v -0.881921 0.000000 -0.471397
v -0.923880 0.000000 -0.382683
v -0.956940 0.000000 -0.290285
v -0.980785 0.000000 -0.195090
v -0.995185 0.000000 -0.098017
v -1.000000 0.000000 0.000000
v -0.995185 0.000000 0.098017
v -0.980785 0.000000 0.195091
v -0.956940 0.000000 0.290285
v -0.923879 0.000000 0.382684
v -0.881921 0.000000 0.471397
v -0.831469 0.000000 0.555571
v -0.773010 0.000000 0.634394
v -0.707106 0.000000 0.707107
v -0.634393 0.000000 0.773011
v -0.555570 0.000000 0.831470
v -0.471396 0.000000 0.881922
v -0.382683 0.000000 0.923880
v -0.290284 0.000000 0.956941
v -0.195090 0.000000 0.980785
v -0.098016 0.000000 0.995185
v 0.000001 0.000000 1.000000
v 0.098018 0.000000 0.995185
v 0.195091 0.000000 0.980785
v 0.290286 0.000000 0.956940
v 0.382684 0.000000 0.923879
v 0.471398 0.000000 0.881921
v 0.555571 0.000000 0.831469
v 0.634394 0.000000 0.773010
v 0.707108 0.000000 0.707106
v 0.773011 0.000000 0.634393
v 0.831470 0.000000 0.555570
v 0.881922 0.000000 0.471396
v 0.923880 0.000000 0.382683
v 0.956940 0.000000 0.290285
v 0.980785 0.000000 0.195090
v 0.995185 0.000000 0.098017
v 1.000000 0.000000 0.000000
v 0.995185 0.000000 -0.098016
v 0.980785 0.000000 -0.195089
v 0.956941 0.000000 -0.290284
v 0.923880 0.000000 -0.382682
v 0.881922 0.000000 -0.471395
v 0.831471 0.000000 -0.555569
v 0.773012 0.000000 -0.634392
v 0.707108 0.000000 -0.707105
v 0.634395 0.000000 -0.773009
v 0.555572 0.000000 -0.831468
v 0.471399 0.000000 -0.881920
v 0.382686 0.000000 -0.923878
v 0.290288 0.000000 -0.956939
v 0.195093 0.000000 -0.980785
v 0.098021 0.000000 -0.995184
v 0.000000 0.100000 -1.000000
v -0.098017 0.100000 -0.995185
v -0.195090 0.100000 -0.980785
v -0.290285 0.100000 -0.956940
v -0.382683 0.100000 -0.923880
v -0.471397 0.100000 -0.881921
v -0.555570 0.100000 -0.831470
v -0.634393 0.100000 -0.773010
v -0.707107 0.100000 -0.707107
v -0.773010 0.100000 -0.634393
v -0.831470 0.100000 -0.555570
v -0.881921 0.100000 -0.471397
v -0.923880 0.100000 -0.382683
v -0.956940 0.100000 -0.290285
v -0.980785 0.100000 -0.195090
v -0.995185 0.100000 -0.098017
v -1.000000 0.100000 0.000000
v -0.995185 0.100000 0.098017
v -0.980785 0.100000 0.195091
v -0.956940 0.100000 0.290285
v -0.923879 0.100000 0.382684
v -0.881921 0.100000 0.471397
v -0.831469 0.100000 0.555571
v -0.773010 0.100000 0.634394
v -0.707106 0.100000 0.707107
v -0.634393 0.100000 0.773011
v -0.555570 0.100000 0.831470
v -0.471396 0.100000 0.881922
v -0.382683 0.100000 0.923880
v -0.290284 0.100000 0.956941
v -0.195090 0.100000 0.980785
v -0.098016 0.100000 0.995185
v 0.000001 0.100000 1.000000
v 0.098018 0.100000 0.995185
v 0.195091 0.100000 0.980785
v 0.290286 0.100000 0.956940
v 0.382684 0.100000 0.923879
v 0.471398 0.100000 0.881921
v 0.555571 0.100000 0.831469
v 0.634394 0.100000 0.773010
v 0.707108 0.100000 0.707106
v 0.773011 0.100000 0.634393
v 0.831470 0.100000 0.555570
v 0.881922 0.100000 0.471396
v 0.923880 0.100000 0.382683
v 0.956940 0.100000 0.290285
v 0.980785 0.100000 0.195090
v 0.995185 0.100000 0.098017
v 1.000000 0.100000 0.000000
v 0.995185 0.100000 -0.098016
v 0.980785 0.100000 -0.195089
v 0.956941 0.100000 -0.290284
v 0.923880 0.100000 -0.382682
v 0.881922 0.100000 -0.471395
v 0.831471 0.100000 -0.555569
v 0.773012 0.100000 -0.634392
v 0.707108 0.100000 -0.707105
v 0.634395 0.100000 -0.773009
v 0.555572 0.100000 -0.831468
v 0.471399 0.100000 -0.881920
v 0.382686 0.100000 -0.923878
v 0.290288 0.100000 -0.956939
v 0.195093 0.100000 -0.980785
v 0.098021 0.100000 -0.995184
vt 0.701881 0.469978
vt 0.991514 0.707674
vt 0.464185 0.759611
vt 0.244117 0.005197
vt 0.476076 0.439161
vt 0.296323 0.535241
vt 0.308687 0.895589
vt 0.234982 0.895589
vt 0.234982 0.890493
vt 0.308687 0.763090
vt 0.234981 0.763090
vt 0.234981 0.757994
vt 0.308687 0.630592
vt 0.234981 0.630592
vt 0.234981 0.625495
vt 0.308687 0.900685
vt 0.234982 0.900685
vt 0.308687 0.768186
vt 0.234981 0.768186
vt 0.308687 0.635688
vt 0.234981 0.635688
vt 0.308687 0.905781
vt 0.234982 0.905781
vt 0.308687 0.773282
vt 0.234981 0.773282
vt 0.308687 0.640784
vt 0.234981 0.640784
vt 0.308687 0.910877
vt 0.234982 0.910877
vt 0.308687 0.778378
vt 0.234981 0.778378
vt 0.308687 0.645880
vt 0.234981 0.645880
vt 0.308687 0.915973
vt 0.234982 0.915973
vt 0.308687 0.783474
vt 0.234981 0.783474
vt 0.308687 0.650976
vt 0.234981 0.650976
vt 0.308687 0.921069
vt 0.234982 0.921069
vt 0.308687 0.788571
vt 0.234981 0.788571
vt 0.308687 0.656072
vt 0.234981 0.656072
vt 0.308687 0.926165
vt 0.234982 0.926165
vt 0.308687 0.793667
vt 0.234981 0.793667
vt 0.308687 0.661168
vt 0.234981 0.661168
vt 0.308687 0.605111
vt 0.234981 0.605111
vt 0.234981 0.600015
vt 0.308687 0.798763
vt 0.234981 0.798763
vt 0.308687 0.666264
vt 0.234981 0.666264
vt 0.308687 0.803859
vt 0.234981 0.803859
vt 0.308687 0.671360
vt 0.234981 0.671360
vt 0.308687 0.808955
vt 0.234981 0.808955
vt 0.308687 0.676456
vt 0.234981 0.676456
vt 0.308687 0.814051
vt 0.234981 0.814051
vt 0.308687 0.681552
vt 0.234981 0.681552
vt 0.308687 0.819147
vt 0.234981 0.819147
vt 0.308687 0.686649
vt 0.234981 0.686649
vt 0.308687 0.824243
vt 0.234981 0.824243
vt 0.308687 0.691745
vt 0.234981 0.691745
vt 0.308687 0.829339
vt 0.234981 0.829339
vt 0.308687 0.696841
vt 0.234981 0.696841
vt 0.308687 0.834435
vt 0.234981 0.834435
vt 0.308687 0.701937
vt 0.234981 0.701937
vt 0.308687 0.839532
vt 0.234981 0.839532
vt 0.308687 0.707033
vt 0.234981 0.707033
vt 0.308687 0.844628
vt 0.234981 0.844628
vt 0.308687 0.712129
vt 0.234981 0.712129
vt 0.308687 0.849724
vt 0.234981 0.849724
vt 0.308687 0.717225
vt 0.234981 0.717225
vt 0.308687 0.854820
vt 0.234981 0.854820
vt 0.308687 0.722321
vt 0.234981 0.722321
vt 0.308687 0.859916
vt 0.234981 0.859916
vt 0.308687 0.727417
vt 0.234981 0.727417
vt 0.308687 0.865012
vt 0.234981 0.865012
vt 0.308687 0.732513
vt 0.234981 0.732513
vt 0.308687 0.870108
vt 0.234981 0.870108
vt 0.308687 0.737610
vt 0.234981 0.737610
vt 0.308687 0.875204
vt 0.234981 0.875204
vt 0.308687 0.742706
vt 0.234981 0.742706
vt 0.308687 0.610207
vt 0.234981 0.610207
vt 0.308687 0.880300
vt 0.234981 0.880300
vt 0.308687 0.747802
vt 0.234981 0.747802
vt 0.308687 0.615303
vt 0.234981 0.615303
vt 0.308687 0.885396
vt 0.234982 0.885396
vt 0.308687 0.752898
vt 0.234981 0.752898
vt 0.308687 0.620399
vt 0.234981 0.620399
vt 0.308687 0.890493
vt 0.308687 0.757994
vt 0.308687 0.625495
vt 0.753818 0.997307
vt 0.727850 0.998583
vt 0.701880 0.997307
vt 0.676162 0.993492
vt 0.650941 0.987174
vt 0.626461 0.978415
vt 0.559773 0.938444
vt 0.602957 0.967299
vt 0.580656 0.953932
vt 0.540508 0.920983
vt 0.523048 0.901718
vt 0.507560 0.880835
vt 0.494193 0.858534
vt 0.483077 0.835030
vt 0.474318 0.810550
vt 0.468000 0.785330
vt 0.462910 0.733642
vt 0.464185 0.707674
vt 0.468000 0.681955
vt 0.474318 0.656735
vt 0.483077 0.632254
vt 0.494193 0.608751
vt 0.507560 0.586450
vt 0.523048 0.565567
vt 0.540509 0.546302
vt 0.559773 0.528841
vt 0.580657 0.513353
vt 0.602958 0.499986
vt 0.626461 0.488870
vt 0.650941 0.480111
vt 0.676162 0.473793
vt 0.727850 0.468702
vt 0.753818 0.469978
vt 0.779537 0.473793
vt 0.804758 0.480111
vt 0.829238 0.488870
vt 0.852742 0.499986
vt 0.875043 0.513353
vt 0.895926 0.528841
vt 0.915191 0.546302
vt 0.932651 0.565566
vt 0.948139 0.586450
vt 0.961506 0.608751
vt 0.972623 0.632254
vt 0.981382 0.656734
vt 0.987699 0.681955
vt 0.992790 0.733643
vt 0.991514 0.759611
vt 0.987699 0.785330
vt 0.981382 0.810551
vt 0.972623 0.835031
vt 0.932651 0.901719
vt 0.961506 0.858534
vt 0.948139 0.880835
vt 0.915191 0.920984
vt 0.852742 0.967299
vt 0.895926 0.938444
vt 0.875043 0.953932
vt 0.829238 0.978415
vt 0.804758 0.987174
vt 0.779537 0.993492
vt 0.270219 0.536524
vt 0.244117 0.535241
vt 0.218266 0.531407
vt 0.192915 0.525057
vt 0.168309 0.516253
vt 0.144684 0.505079
vt 0.122268 0.491643
vt 0.101277 0.476076
vt 0.081914 0.458525
vt 0.064363 0.439161
vt 0.048795 0.418170
vt 0.035360 0.395754
vt 0.024186 0.372130
vt 0.005197 0.296322
vt 0.015382 0.347523
vt 0.009032 0.322173
vt 0.003915 0.270219
vt 0.015382 0.192915
vt 0.005197 0.244117
vt 0.009032 0.218266
vt 0.024186 0.168309
vt 0.064363 0.101277
vt 0.035360 0.144684
vt 0.048795 0.122268
vt 0.081914 0.081913
vt 0.101278 0.064363
vt 0.122268 0.048795
vt 0.144684 0.035360
vt 0.168309 0.024186
vt 0.192915 0.015382
vt 0.218266 0.009032
vt 0.270220 0.003915
vt 0.347524 0.015382
vt 0.296322 0.005197
vt 0.322173 0.009032
vt 0.372130 0.024186
vt 0.439161 0.064363
vt 0.395755 0.035360
vt 0.418170 0.048795
vt 0.458525 0.081914
vt 0.476076 0.101278
vt 0.491643 0.122269
vt 0.505079 0.144684
vt 0.516253 0.168309
vt 0.525057 0.192915
vt 0.531407 0.218266
vt 0.535242 0.244117
vt 0.536524 0.270219
vt 0.535242 0.296322
vt 0.531407 0.322173
vt 0.525057 0.347523
vt 0.516253 0.372129
vt 0.505079 0.395754
vt 0.491644 0.418170
vt 0.458525 0.458525
vt 0.439162 0.476075
vt 0.418171 0.491643
vt 0.395755 0.505079
vt 0.372130 0.516252
vt 0.347524 0.525057
vt 0.322174 0.531407
vt 0.308687 0.600015
vn 0.000000 -1.000000 0.000000
vn 0.000000 1.000000 -0.000000
vn 0.634400 0.000000 -0.773000
vn 0.707100 0.000000 -0.707100
vn -0.098000 0.000000 0.995200
vn -0.195100 0.000000 0.980800
vn -0.471400 0.000000 -0.881900
vn -0.382700 0.000000 -0.923900
vn 0.555600 0.000000 -0.831500
vn 0.000000 0.000000 1.000000
vn -0.555600 0.000000 -0.831500
vn 0.471400 0.000000 -0.881900
vn 0.098000 0.000000 0.995200
vn -0.634400 0.000000 -0.773000
vn 0.382700 0.000000 -0.923900
vn 0.195100 0.000000 0.980800
vn -0.707100 0.000000 -0.707100
vn 0.290300 0.000000 -0.956900
vn 0.290300 0.000000 0.956900
vn -0.773000 0.000000 -0.634400
vn 0.195100 0.000000 -0.980800
vn 0.382700 0.000000 0.923900
vn -0.831500 0.000000 -0.555600
vn 0.098000 0.000000 -0.995200
vn 0.471400 0.000000 0.881900
vn -0.881900 0.000000 -0.471400
vn 0.000000 0.000000 -1.000000
vn 0.555600 0.000000 0.831500
vn -0.923900 0.000000 -0.382700
vn 0.634400 0.000000 0.773000
vn -0.956900 0.000000 -0.290300
vn 0.707100 0.000000 0.707100
vn -0.980800 0.000000 -0.195100
vn 0.773000 0.000000 0.634400
vn -0.995200 0.000000 -0.098000
vn 0.831500 0.000000 0.555600
vn -1.000000 0.000000 0.000000
vn 0.881900 0.000000 0.471400
vn -0.995200 0.000000 0.098000
vn 0.923900 0.000000 0.382700
vn -0.980800 0.000000 0.195100
vn 0.956900 0.000000 0.290300
vn -0.956900 0.000000 0.290300
vn 0.980800 0.000000 0.195100
vn -0.923900 0.000000 0.382700
vn 0.995200 0.000000 0.098000
vn -0.881900 0.000000 0.471400
vn 1.000000 0.000000 0.000000
vn -0.831500 0.000000 0.555600
vn 0.995200 0.000000 -0.098000
vn -0.773000 0.000000 0.634400
vn 0.980800 0.000000 -0.195100
vn -0.707100 0.000000 0.707100
vn 0.956900 0.000000 -0.290300
vn -0.634400 0.000000 0.773000
vn 0.923900 0.000000 -0.382700
vn -0.555600 0.000000 0.831500
vn 0.881900 0.000000 -0.471400
vn -0.471400 0.000000 0.881900
vn -0.098000 0.000000 -0.995200
vn 0.831500 0.000000 -0.555600
vn -0.382700 0.000000 0.923900
vn -0.195100 0.000000 -0.980800
vn 0.773000 0.000000 -0.634400
vn -0.290300 0.000000 0.956900
vn -0.290300 0.000000 -0.956900
s 1
f 34/1/1 18/2/1 50/3/1
f 96/4/2 120/5/2 128/6/2
f 58/7/3 122/8/3 121/9/4
f 32/10/5 96/11/5 95/12/6
f 6/13/7 70/14/7 69/15/8
f 59/16/9 123/17/9 122/8/3
f 33/18/10 97/19/10 96/11/5
f 7/20/11 71/21/11 70/14/7
f 60/22/12 124/23/12 123/17/9
f 34/24/13 98/25/13 97/19/10
f 8/26/14 72/27/14 71/21/11
f 61/28/15 125/29/15 124/23/12
f 35/30/16 99/31/16 98/25/13
f 9/32/17 73/33/17 72/27/14
f 62/34/18 126/35/18 125/29/15
f 36/36/19 100/37/19 99/31/16
f 10/38/20 74/39/20 73/33/17
f 63/40/21 127/41/21 126/35/18
f 37/42/22 101/43/22 100/37/19
f 11/44/23 75/45/23 74/39/20
f 64/46/24 128/47/24 127/41/21
f 38/48/25 102/49/25 101/43/22
f 12/50/26 76/51/26 75/45/23
f 1/52/27 65/53/27 128/54/24
f 39/55/28 103/56/28 102/49/25
f 13/57/29 77/58/29 76/51/26
f 40/59/30 104/60/30 103/56/28
f 14/61/31 78/62/31 77/58/29
f 41/63/32 105/64/32 104/60/30
f 15/65/33 79/66/33 78/62/31
f 42/67/34 106/68/34 105/64/32
f 16/69/35 80/70/35 79/66/33
f 43/71/36 107/72/36 106/68/34
f 17/73/37 81/74/37 80/70/35
f 44/75/38 108/76/38 107/72/36
f 18/77/39 82/78/39 81/74/37
f 45/79/40 109/80/40 108/76/38
f 19/81/41 83/82/41 82/78/39
f 46/83/42 110/84/42 109/80/40
f 20/85/43 84/86/43 83/82/41
f 47/87/44 111/88/44 110/84/42
f 21/89/45 85/90/45 84/86/43
f 48/91/46 112/92/46 111/88/44
f 22/93/47 86/94/47 85/90/45
f 49/95/48 113/96/48 112/92/46
f 23/97/49 87/98/49 86/94/47
f 50/99/50 114/100/50 113/96/48
f 24/101/51 88/102/51 87/98/49
f 51/103/52 115/104/52 114/100/50
f 25/105/53 89/106/53 88/102/51
f 52/107/54 116/108/54 115/104/52
f 26/109/55 90/110/55 89/106/53
f 53/111/56 117/112/56 116/108/54
f 27/113/57 91/114/57 90/110/55
f 54/115/58 118/116/58 117/112/56
f 28/117/59 92/118/59 91/114/57
f 2/119/60 66/120/60 65/53/27
f 55/121/61 119/122/61 118/116/58
f 29/123/62 93/124/62 92/118/59
f 3/125/63 67/126/63 66/120/60
f 56/127/64 120/128/64 119/122/61
f 30/129/65 94/130/65 93/124/62
f 4/131/66 68/132/66 67/126/63
f 57/133/4 121/9/4 120/128/64
f 31/134/6 95/12/6 94/130/65
f 5/135/8 69/15/8 68/132/66
f 2/136/1 1/137/1 64/138/1
f 64/138/1 63/139/1 62/140/1
f 62/140/1 61/141/1 58/142/1
f 60/143/1 59/144/1 58/142/1
f 58/142/1 57/145/1 56/146/1
f 56/146/1 55/147/1 54/148/1
f 54/148/1 53/149/1 52/150/1
f 52/150/1 51/151/1 54/148/1
f 50/3/1 49/152/1 48/153/1
f 48/153/1 47/154/1 50/3/1
f 46/155/1 45/156/1 44/157/1
f 44/157/1 43/158/1 42/159/1
f 42/159/1 41/160/1 40/161/1
f 40/161/1 39/162/1 38/163/1
f 38/163/1 37/164/1 34/1/1
f 36/165/1 35/166/1 34/1/1
f 34/1/1 33/167/1 32/168/1
f 32/168/1 31/169/1 30/170/1
f 30/170/1 29/171/1 28/172/1
f 28/172/1 27/173/1 26/174/1
f 26/174/1 25/175/1 24/176/1
f 24/176/1 23/177/1 26/174/1
f 22/178/1 21/179/1 20/180/1
f 20/180/1 19/181/1 18/2/1
f 18/2/1 17/182/1 16/183/1
f 16/183/1 15/184/1 14/185/1
f 14/185/1 13/186/1 10/187/1
f 12/188/1 11/189/1 10/187/1
f 10/187/1 9/190/1 6/191/1
f 8/192/1 7/193/1 6/191/1
f 6/191/1 5/194/1 4/195/1
f 4/195/1 3/196/1 6/191/1
f 2/136/1 64/138/1 58/142/1
f 61/141/1 60/143/1 58/142/1
f 58/142/1 56/146/1 54/148/1
f 54/148/1 51/151/1 50/3/1
f 50/3/1 47/154/1 46/155/1
f 46/155/1 44/157/1 42/159/1
f 42/159/1 40/161/1 38/163/1
f 37/164/1 36/165/1 34/1/1
f 34/1/1 32/168/1 26/174/1
f 30/170/1 28/172/1 26/174/1
f 26/174/1 23/177/1 22/178/1
f 22/178/1 20/180/1 26/174/1
f 18/2/1 16/183/1 14/185/1
f 13/186/1 12/188/1 10/187/1
f 9/190/1 8/192/1 6/191/1
f 6/191/1 3/196/1 2/136/1
f 64/138/1 62/140/1 58/142/1
f 58/142/1 54/148/1 2/136/1
f 50/3/1 46/155/1 42/159/1
f 42/159/1 38/163/1 50/3/1
f 32/168/1 30/170/1 26/174/1
f 26/174/1 20/180/1 18/2/1
f 18/2/1 14/185/1 2/136/1
f 10/187/1 6/191/1 2/136/1
f 2/136/1 54/148/1 50/3/1
f 50/3/1 38/163/1 34/1/1
f 34/1/1 26/174/1 18/2/1
f 14/185/1 10/187/1 2/136/1
f 2/136/1 50/3/1 18/2/1
f 128/6/2 65/197/2 66/198/2
f 66/198/2 67/199/2 128/6/2
f 68/200/2 69/201/2 70/202/2
f 70/202/2 71/203/2 72/204/2
f 72/204/2 73/205/2 74/206/2
f 74/206/2 75/207/2 76/208/2
f 76/208/2 77/209/2 80/210/2
f 78/211/2 79/212/2 80/210/2
f 80/210/2 81/213/2 84/214/2
f 82/215/2 83/216/2 84/214/2
f 84/214/2 85/217/2 88/218/2
f 86/219/2 87/220/2 88/218/2
f 88/218/2 89/221/2 90/222/2
f 90/222/2 91/223/2 92/224/2
f 92/224/2 93/225/2 94/226/2
f 94/226/2 95/227/2 96/4/2
f 96/4/2 97/228/2 100/229/2
f 98/230/2 99/231/2 100/229/2
f 100/229/2 101/232/2 104/233/2
f 102/234/2 103/235/2 104/233/2
f 104/233/2 105/236/2 106/237/2
f 106/237/2 107/238/2 108/239/2
f 108/239/2 109/240/2 110/241/2
f 110/241/2 111/242/2 112/243/2
f 112/243/2 113/244/2 114/245/2
f 114/245/2 115/246/2 116/247/2
f 116/247/2 117/248/2 118/249/2
f 118/249/2 119/250/2 120/5/2
f 120/5/2 121/251/2 122/252/2
f 122/252/2 123/253/2 124/254/2
f 124/254/2 125/255/2 128/6/2
f 126/256/2 127/257/2 128/6/2
f 128/6/2 67/199/2 68/200/2
f 68/200/2 70/202/2 128/6/2
f 72/204/2 74/206/2 76/208/2
f 77/209/2 78/211/2 80/210/2
f 81/213/2 82/215/2 84/214/2
f 85/217/2 86/219/2 88/218/2
f 88/218/2 90/222/2 92/224/2
f 92/224/2 94/226/2 96/4/2
f 97/228/2 98/230/2 100/229/2
f 101/232/2 102/234/2 104/233/2
f 104/233/2 106/237/2 108/239/2
f 108/239/2 110/241/2 104/233/2
f 112/243/2 114/245/2 120/5/2
f 116/247/2 118/249/2 120/5/2
f 120/5/2 122/252/2 128/6/2
f 125/255/2 126/256/2 128/6/2
f 128/6/2 70/202/2 72/204/2
f 72/204/2 76/208/2 80/210/2
f 80/210/2 84/214/2 88/218/2
f 88/218/2 92/224/2 80/210/2
f 96/4/2 100/229/2 104/233/2
f 104/233/2 110/241/2 112/243/2
f 114/245/2 116/247/2 120/5/2
f 122/252/2 124/254/2 128/6/2
f 128/6/2 72/204/2 80/210/2
f 80/210/2 92/224/2 96/4/2
f 96/4/2 104/233/2 112/243/2
f 112/243/2 120/5/2 96/4/2
f 128/6/2 80/210/2 96/4/2
f 57/133/4 58/7/3 121/9/4
f 31/134/6 32/10/5 95/12/6
f 5/135/8 6/13/7 69/15/8
f 58/7/3 59/16/9 122/8/3
f 32/10/5 33/18/10 96/11/5
f 6/13/7 7/20/11 70/14/7
f 59/16/9 60/22/12 123/17/9
f 33/18/10 34/24/13 97/19/10
f 7/20/11 8/26/14 71/21/11
f 60/22/12 61/28/15 124/23/12
f 34/24/13 35/30/16 98/25/13
f 8/26/14 9/32/17 72/27/14
f 61/28/15 62/34/18 125/29/15
f 35/30/16 36/36/19 99/31/16
f 9/32/17 10/38/20 73/33/17
f 62/34/18 63/40/21 126/35/18
f 36/36/19 37/42/22 100/37/19
f 10/38/20 11/44/23 74/39/20
f 63/40/21 64/46/24 127/41/21
f 37/42/22 38/48/25 101/43/22
f 11/44/23 12/50/26 75/45/23
f 64/258/24 1/52/27 128/54/24
f 38/48/25 39/55/28 102/49/25
f 12/50/26 13/57/29 76/51/26
f 39/55/28 40/59/30 103/56/28
f 13/57/29 14/61/31 77/58/29
f 40/59/30 41/63/32 104/60/30
f 14/61/31 15/65/33 78/62/31
f 41/63/32 42/67/34 105/64/32
f 15/65/33 16/69/35 79/66/33
f 42/67/34 43/71/36 106/68/34
f 16/69/35 17/73/37 80/70/35
f 43/71/36 44/75/38 107/72/36
f 17/73/37 18/77/39 81/74/37
f 44/75/38 45/79/40 108/76/38
f 18/77/39 19/81/41 82/78/39
f 45/79/40 46/83/42 109/80/40
f 19/81/41 20/85/43 83/82/41
f 46/83/42 47/87/44 110/84/42
f 20/85/43 21/89/45 84/86/43
f 47/87/44 48/91/46 111/88/44
f 21/89/45 22/93/47 85/90/45
f 48/91/46 49/95/48 112/92/46
f 22/93/47 23/97/49 86/94/47
f 49/95/48 50/99/50 113/96/48
f 23/97/49 24/101/51 87/98/49
f 50/99/50 51/103/52 114/100/50
f 24/101/51 25/105/53 88/102/51
f 51/103/52 52/107/54 115/104/52
f 25/105/53 26/109/55 89/106/53
f 52/107/54 53/111/56 116/108/54
f 26/109/55 27/113/57 90/110/55
f 53/111/56 54/115/58 117/112/56
f 27/113/57 28/117/59 91/114/57
f 1/52/27 2/119/60 65/53/27
f 54/115/58 55/121/61 118/116/58
f 28/117/59 29/123/62 92/118/59
f 2/119/60 3/125/63 66/120/60
f 55/121/61 56/127/64 119/122/61
f 29/123/62 30/129/65 93/124/62
f 3/125/63 4/131/66 67/126/63
f 56/127/64 57/133/4 120/128/64
f 30/129/65 31/134/6 94/130/65
f 4/131/66 5/135/8 68/132/66
