# Blender v2.77 (sub 0) OBJ File: ''
# www.blender.org
o lead_Mesh
v -1.243989 0.000000 1.174240
v 1.658697 0.150000 -0.476321
v -1.282672 0.000000 1.168679
v -1.299093 0.150000 1.162716
v -1.293538 0.000000 1.165926
v -1.295921 0.000000 1.165049
v -1.297575 0.000000 1.164212
v -1.299093 0.000000 1.162716
v -1.658216 0.150000 -0.458786
v -1.303482 0.000000 1.155922
v -1.351377 0.150000 1.046888
v -1.293538 0.150000 1.165926
v -1.351377 0.000000 1.046888
v 1.747146 0.150000 -0.185565
v 1.714224 0.150000 0.380286
v -1.653390 0.000000 0.520725
v 1.684723 0.150000 0.469170
v -1.686077 0.000000 0.439729
v 1.728745 0.150000 0.318464
v -1.707221 0.000000 0.360534
v -1.731474 0.000000 0.217994
v 1.755249 0.150000 -0.089586
v -1.744751 0.000000 0.018485
v -1.281658 0.150000 -1.095586
v -1.732836 0.000000 -0.173662
v -1.243989 0.150000 1.174240
v -1.717551 0.000000 -0.262870
v 1.322989 0.150000 1.157105
v -1.602375 0.150000 -0.575640
v -1.303482 0.150000 1.155922
v -1.658216 0.000000 -0.458786
v -1.297575 0.150000 1.164212
v -1.602375 0.000000 -0.575640
v 1.700447 0.150000 -0.366312
v 1.639554 0.150000 0.564994
v 1.747319 0.150000 0.177101
v -1.293790 0.000000 -1.081552
v -1.287441 0.000000 -1.089533
v -1.732836 0.150000 -0.173662
v -1.281658 0.000000 -1.095586
v -1.279088 0.000000 -1.097742
v -1.276790 0.000000 -1.099239
v 1.277035 0.000000 -1.102862
v 1.279776 0.000000 -1.101695
v 1.282956 0.000000 -1.099574
v -1.717551 0.150000 -0.262870
v 1.290484 0.000000 -1.092659
v -1.287441 0.150000 -1.089533
v 1.299308 0.000000 -1.082503
v -1.653390 0.150000 0.520725
v 1.319603 0.000000 -1.054012
v 1.330726 0.150000 1.143428
v 1.306015 0.150000 1.178356
v 1.658697 0.000000 -0.476321
v -1.731474 0.150000 0.217994
v 1.700447 0.000000 -0.366312
v -1.282672 0.150000 1.168679
v 1.299308 0.150000 -1.082503
v 1.747146 0.000000 -0.185565
v -1.293790 0.150000 -1.081552
v -1.744751 0.150000 0.018485
v 1.755249 0.000000 -0.089586
v 1.319603 0.150000 -1.054012
v 1.747319 0.000000 0.177101
v 1.403692 0.150000 0.963891
v 1.728745 0.000000 0.318464
v 1.714224 0.000000 0.380286
v 1.282956 0.150000 -1.099574
v 1.684723 0.000000 0.469170
v -1.276790 0.150000 -1.099239
v 1.639554 0.000000 0.564994
v -1.295921 0.150000 1.165049
v -1.686077 0.150000 0.439729
v 1.403692 0.000000 0.963891
v -1.279088 0.150000 -1.097742
v -1.707221 0.150000 0.360534
v 1.277035 0.150000 -1.102862
v 1.330726 0.000000 1.143428
v 1.279776 0.150000 -1.101695
v 1.322989 0.000000 1.157105
v 1.290484 0.150000 -1.092659
v 1.306015 0.000000 1.178356
v -1.653390 0.150000 0.520725
v -1.686077 0.150000 0.439729
v -1.287441 0.150000 -1.089533
v -1.281658 0.150000 -1.095586
v -1.351377 0.150000 1.046888
v -1.658216 0.150000 -0.458786
v -1.602375 0.150000 -0.575640
v -1.602375 0.000000 -0.575640
v -1.293790 0.000000 -1.081552
v -1.744751 0.150000 0.018485
v -1.732836 0.150000 -0.173662
v -1.717551 0.150000 -0.262870
v -1.717551 0.000000 -0.262870
v -1.658216 0.000000 -0.458786
v 1.330726 0.150000 1.143428
v 1.322989 0.150000 1.157105
v -1.282672 0.000000 1.168679
v -1.293538 0.000000 1.165926
v -1.281658 0.000000 -1.095586
v -1.279088 0.000000 -1.097742
v 1.319603 0.150000 -1.054012
v 1.658697 0.150000 -0.476321
v 1.277035 0.000000 -1.102862
v 1.279776 0.000000 -1.101695
v -1.295921 0.150000 1.165049
v -1.297575 0.150000 1.164212
v -1.279088 0.150000 -1.097742
v 1.299308 0.150000 -1.082503
v 1.747146 0.000000 -0.185565
v 1.755249 0.000000 -0.089586
v 1.684723 0.150000 0.469170
v 1.639554 0.150000 0.564994
v 1.403692 0.150000 0.963891
v 1.714224 0.150000 0.380286
v -1.299093 0.150000 1.162716
v -1.303482 0.150000 1.155922
v 1.747319 0.150000 0.177101
v 1.728745 0.150000 0.318464
v 1.747146 0.150000 -0.185565
v 1.755249 0.150000 -0.089586
v 1.306015 0.150000 1.178356
v -1.276790 0.150000 -1.099239
v 1.747319 0.000000 0.177101
v 1.714224 0.000000 0.380286
v 1.684723 0.000000 0.469170
v -1.731474 0.150000 0.217994
v -1.282672 0.150000 1.168679
v -1.293538 0.150000 1.165926
v 1.279776 0.150000 -1.101695
v 1.282956 0.150000 -1.099574
v 1.700447 0.150000 -0.366312
v -1.707221 0.150000 0.360534
v 1.403692 0.000000 0.963891
v 1.330726 0.000000 1.143428
v -1.732836 0.000000 -0.173662
v -1.297575 0.000000 1.164212
v -1.299093 0.000000 1.162716
v -1.293790 0.150000 -1.081552
v -1.243989 0.150000 1.174240
v 1.728745 0.000000 0.318464
v 1.639554 0.000000 0.564994
v 1.700447 0.000000 -0.366312
v 1.658697 0.000000 -0.476321
v -1.276790 0.000000 -1.099239
v 1.282956 0.000000 -1.099574
v 1.290484 0.000000 -1.092659
v -1.653390 0.000000 0.520725
v -1.686077 0.000000 0.439729
v -1.731474 0.000000 0.217994
v -1.744751 0.000000 0.018485
v 1.322989 0.000000 1.157105
v 1.306015 0.000000 1.178356
v -1.295921 0.000000 1.165049
v 1.277035 0.150000 -1.102862
v -1.287441 0.000000 -1.089533
v 1.290484 0.150000 -1.092659
v 1.299308 0.000000 -1.082503
v 1.319603 0.000000 -1.054012
v -1.707221 0.000000 0.360534
v -1.303482 0.000000 1.155922
v -1.351377 0.000000 1.046888
v -1.243989 0.000000 1.174240
vt 0.1544 0.9674
vt 0.1632 0.0453
vt 0.8800 0.1306
vt 0.1571 0.9688
vt 0.1456 0.9490
vt 0.1229 0.1306
vt 0.8536 0.0437
vt 0.8582 0.0523
vt 0.8603 0.0578
vt 0.9439 0.2924
vt 0.9491 0.7147
vt 0.1528 0.0476
vt 0.1471 0.0528
vt 0.1492 0.0491
vt 0.1498 0.0487
vt 0.1483 0.0500
vt 0.1487 0.0494
vt 0.1342 0.0970
vt 0.0436 0.3432
vt 0.0524 0.3104
vt 0.0378 0.3753
vt 0.0313 0.4331
vt 0.0309 0.5920
vt 0.0277 0.5141
vt 0.0662 0.7550
vt 0.0511 0.7076
vt 0.0350 0.6282
vt 0.1498 0.9602
vt 0.1530 0.9659
vt 0.1515 0.9634
vt 0.1537 0.9668
vt 0.8465 0.9684
vt 0.8457 0.9688
vt 0.8473 0.9675
vt 0.8494 0.9647
vt 0.8573 0.9490
vt 0.8518 0.9606
vt 0.9604 0.6701
vt 0.9752 0.5579
vt 0.9730 0.5968
vt 0.9680 0.3924
vt 0.9730 0.4497
vt 0.9561 0.3313
vt 0.9641 0.3673
vt 0.1426 0.0578
vt 0.1447 0.0523
vt 0.1493 0.0437
vt 0.8396 0.0453
vt 0.8501 0.0476
vt 0.8530 0.0487
vt 0.8557 0.0528
vt 0.8537 0.0491
vt 0.8541 0.0494
vt 0.8545 0.0500
vt 0.8687 0.0970
vt 0.9505 0.3104
vt 0.9366 0.7550
vt 0.9593 0.3432
vt 0.9650 0.3753
vt 0.9716 0.4331
vt 0.9752 0.5141
vt 0.9720 0.5920
vt 0.9678 0.6282
vt 0.9518 0.7076
vt 0.8531 0.9602
vt 0.8514 0.9634
vt 0.8485 0.9674
vt 0.8498 0.9659
vt 0.8491 0.9668
vt 0.1564 0.9684
vt 0.1555 0.9675
vt 0.1535 0.9647
vt 0.1511 0.9606
vt 0.0538 0.7147
vt 0.0425 0.6701
vt 0.0299 0.5968
vt 0.0277 0.5579
vt 0.0298 0.4497
vt 0.0349 0.3924
vt 0.0388 0.3673
vt 0.0590 0.2924
vt 0.0468 0.3313
vt 0.8011 0.1391
vt 0.8010 0.1391
vt 0.8011 0.1391
vt 0.8011 0.1375
vt 0.8010 0.1375
vt 0.8011 0.1375
vt 0.8010 0.1391
vt 0.8011 0.1391
vt 0.8011 0.1391
vt 0.8010 0.1391
vt 0.8011 0.1391
vt 0.8011 0.1380
vt 0.8010 0.1380
vt 0.8011 0.1380
vt 0.8011 0.1380
vt 0.8010 0.1380
vt 0.8011 0.1380
vt 0.8011 0.1380
vt 0.8010 0.1380
vt 0.8011 0.1380
vt 0.8011 0.1386
vt 0.8010 0.1386
vt 0.8011 0.1386
vt 0.8011 0.1377
vt 0.8010 0.1376
vt 0.8011 0.1376
vt 0.8011 0.1397
vt 0.8010 0.1391
vt 0.8011 0.1387
vt 0.8010 0.1386
vt 0.8011 0.1389
vt 0.8010 0.1389
vt 0.8011 0.1389
vt 0.8011 0.1390
vt 0.8010 0.1389
vt 0.8011 0.1380
vt 0.8010 0.1380
vt 0.8011 0.1379
vt 0.8010 0.1379
vt 0.8011 0.1379
vt 0.8010 0.1388
vt 0.8011 0.1388
vt 0.8011 0.1390
vt 0.8010 0.1390
vt 0.8010 0.1380
vt 0.8011 0.1378
vt 0.8010 0.1378
vt 0.8011 0.1378
vt 0.8011 0.1377
vt 0.8010 0.1377
vt 0.8011 0.1388
vt 0.8010 0.1388
vt 0.8011 0.1388
vt 0.8010 0.1380
vt 0.8011 0.1380
vt 0.8010 0.1386
vt 0.8011 0.1386
vt 0.8011 0.1386
vt 0.8010 0.1380
vt 0.8011 0.1388
vt 0.8010 0.1388
vt 0.8010 0.1388
vt 0.8010 0.1390
vt 0.8011 0.1391
vt 0.8010 0.1391
vt 0.8010 0.1378
vt 0.8011 0.1378
vt 0.8010 0.1377
vt 0.8011 0.1377
vt 0.8010 0.1378
vt 0.8010 0.1377
vt 0.8011 0.1375
vt 0.8010 0.1375
vt 0.8010 0.1375
vt 0.8010 0.1380
vt 0.8011 0.1375
vt 0.8010 0.1375
vt 0.8011 0.1375
vt 0.8010 0.1379
vt 0.8010 0.1387
vt 0.8010 0.1386
vt 0.8010 0.1391
vt 0.8010 0.1375
vt 0.8010 0.1397
vn 0.0000 1.0000 0.0000
vn 0.0000 -1.0000 0.0000
vn 0.0000 1.0000 -0.0001
vn 0.7168 0.0000 -0.6973
vn 0.7856 0.0000 -0.6187
vn -0.7535 0.0000 -0.6574
vn -0.6839 0.0000 -0.7295
vn -0.6839 0.0000 -0.7296
vn 0.8393 0.0000 -0.5437
vn 0.1992 0.0000 -0.9799
vn 0.4753 0.0000 -0.8798
vn 0.4754 0.0000 -0.8798
vn -0.7756 0.0000 0.6312
vn -0.8806 0.0000 0.4739
vn -0.3991 0.0000 0.9169
vn -0.5837 0.0000 0.8119
vn -0.5837 0.0000 0.8120
vn -0.0721 0.0000 0.9974
vn -0.1942 0.0000 0.9810
vn 0.8960 0.0000 0.4439
vn 0.9003 0.0000 0.4353
vn -0.9323 0.0000 -0.3615
vn -0.8791 0.0000 -0.4765
vn -0.2855 0.0000 -0.9584
vn 0.8836 0.0000 0.4682
vn 0.9858 0.0000 -0.1677
vn 0.9996 0.0000 -0.0272
vn 0.9530 0.0000 -0.3029
vn -0.2959 0.0000 0.9552
vn -0.8994 0.0000 0.4371
vn -0.9485 0.0000 0.3167
vn 0.9968 0.0000 0.0801
vn 0.9019 0.0000 -0.4320
vn -0.9931 0.0000 0.1172
vn -1.0000 0.0000 0.0023
vn -0.9732 0.0000 -0.2298
vn 0.9622 0.0000 0.2721
vn 0.9285 0.0000 0.3713
vn -0.8927 0.0000 0.4506
vn 0.8285 0.0000 0.5600
vn 0.4328 0.0000 0.9015
vn 0.9837 0.0000 0.1797
vn 0.9018 0.0000 -0.4320
vn 0.6175 0.0000 -0.7865
vn 0.7168 0.0000 -0.6972
vn -0.9770 0.0000 0.2130
vn -0.9933 0.0000 -0.1155
vn -0.8197 0.0000 -0.5728
vn -0.7536 0.0000 -0.6574
vn -0.8197 0.0000 -0.5727
vn -0.7757 0.0000 0.6311
vn -0.5954 0.0000 -0.8034
vn -0.2855 0.0000 -0.9583
vn 0.6175 0.0000 -0.7866
vn -0.5955 0.0000 -0.8033
s off
f 124/1/1 141/2/1 65/3/1
f 43/4/2 160/5/2 74/6/2
f 53/7/1 98/8/1 97/9/1
f 65/3/1 35/10/1 104/11/1
f 53/7/1 97/9/1 65/3/1
f 57/12/1 141/2/1 30/13/1
f 107/14/1 130/15/1 4/16/1
f 4/16/1 32/17/1 107/14/1
f 87/18/1 30/13/1 141/2/1
f 84/19/1 83/20/1 134/21/1
f 55/22/1 134/21/1 83/20/1
f 93/23/1 61/24/1 89/25/1
f 88/26/1 46/27/1 89/25/1
f 60/28/1 89/25/1 124/1/1
f 24/29/1 48/30/1 124/1/1
f 124/1/3 109/31/3 24/29/3
f 131/32/3 156/33/3 132/34/3
f 81/35/1 132/34/1 156/33/1
f 103/36/1 58/37/1 156/33/1
f 133/38/1 104/11/1 22/39/1
f 22/39/1 14/40/1 133/38/1
f 19/41/1 36/42/1 35/10/1
f 17/43/1 15/44/1 35/10/1
f 141/2/1 53/7/1 65/3/1
f 35/10/1 15/44/1 19/41/1
f 36/42/1 22/39/1 104/11/1
f 104/11/1 103/36/1 65/3/1
f 81/35/1 156/33/1 58/37/1
f 124/1/1 48/30/1 60/28/1
f 89/25/1 46/27/1 93/23/1
f 61/24/1 55/22/1 89/25/1
f 30/13/1 4/16/1 130/15/1
f 55/22/1 83/20/1 89/25/1
f 124/1/1 89/25/1 87/18/1
f 156/33/1 124/1/1 65/3/1
f 35/10/1 36/42/1 104/11/1
f 130/15/1 57/12/1 30/13/1
f 83/20/1 87/18/1 89/25/1
f 156/33/1 65/3/1 103/36/1
f 141/2/1 124/1/1 87/18/1
f 136/45/2 153/46/2 82/47/2
f 82/47/2 1/48/2 74/6/2
f 3/49/2 100/50/2 10/51/2
f 6/52/2 7/53/2 8/54/2
f 8/54/2 100/50/2 6/52/2
f 163/55/2 16/56/2 90/57/2
f 18/58/2 161/59/2 16/56/2
f 21/60/2 23/61/2 90/57/2
f 25/62/2 27/63/2 90/57/2
f 96/64/2 90/57/2 27/63/2
f 91/65/2 38/66/2 146/67/2
f 40/68/2 102/69/2 146/67/2
f 146/67/2 43/4/2 74/6/2
f 44/70/2 147/71/2 43/4/2
f 47/72/2 49/73/2 43/4/2
f 160/5/2 54/74/2 74/6/2
f 144/75/2 59/76/2 62/77/2
f 62/77/2 64/78/2 54/74/2
f 66/79/2 67/80/2 71/81/2
f 69/82/2 71/81/2 67/80/2
f 74/6/2 136/45/2 82/47/2
f 1/48/2 10/51/2 163/55/2
f 8/54/2 10/51/2 100/50/2
f 16/56/2 161/59/2 21/60/2
f 23/61/2 25/62/2 90/57/2
f 90/57/2 91/65/2 146/67/2
f 40/68/2 146/67/2 38/66/2
f 147/71/2 47/72/2 43/4/2
f 54/74/2 144/75/2 62/77/2
f 64/78/2 66/79/2 71/81/2
f 74/6/2 1/48/2 146/67/2
f 64/78/2 71/81/2 54/74/2
f 49/73/2 160/5/2 43/4/2
f 90/57/2 146/67/2 163/55/2
f 16/56/2 21/60/2 90/57/2
f 3/49/2 10/51/2 1/48/2
f 54/74/2 71/81/2 74/6/2
f 163/55/2 146/67/2 1/48/2
s 1
f 148/83/4 110/84/5 159/85/5
f 157/86/6 86/87/7 101/88/8
f 159/85/5 63/89/9 51/90/9
f 105/91/10 79/92/11 106/93/12
f 139/94/13 118/95/14 162/96/14
f 155/97/15 108/98/16 138/99/17
f 164/100/18 129/101/19 99/102/19
f 135/103/20 52/104/21 78/105/21
f 31/106/22 29/107/23 33/108/23
f 42/109/24 77/110/10 105/91/10
f 143/111/25 115/112/20 135/103/20
f 111/113/26 122/114/27 112/115/27
f 56/116/28 121/117/26 111/113/26
f 5/118/29 72/119/15 155/97/15
f 149/120/30 73/121/31 150/122/31
f 112/115/27 119/123/32 125/124/32
f 145/125/33 34/126/28 56/116/28
f 99/102/19 12/127/29 5/118/29
f 151/128/34 92/129/35 152/130/35
f 95/131/36 9/132/22 31/106/22
f 126/133/37 113/134/38 127/135/38
f 162/96/14 11/136/39 13/137/39
f 78/105/21 28/138/40 80/139/40
f 154/140/41 26/141/18 164/100/18
f 142/142/42 116/143/37 126/133/37
f 125/124/32 120/144/42 142/142/42
f 51/90/9 2/145/43 145/125/33
f 45/146/44 158/147/45 148/83/4
f 150/122/31 76/148/46 20/149/46
f 152/130/35 39/150/47 137/151/47
f 20/149/46 128/152/34 151/128/34
f 137/151/47 94/153/36 95/131/36
f 37/154/48 85/155/49 157/86/6
f 33/108/23 140/156/50 37/154/48
f 138/99/17 117/157/51 139/94/13
f 41/158/52 70/159/53 42/160/24
f 13/137/39 50/161/30 149/120/30
f 127/135/38 114/162/25 143/111/25
f 80/139/40 123/163/41 154/140/41
f 106/93/12 68/164/54 45/146/44
f 101/88/8 75/165/55 41/158/52
f 148/83/4 158/147/45 110/84/5
f 157/86/6 85/155/49 86/87/7
f 159/85/5 110/84/5 63/89/9
f 105/91/10 77/110/10 79/92/11
f 139/94/13 117/157/51 118/95/14
f 155/97/15 72/119/15 108/98/16
f 164/100/18 26/141/18 129/101/19
f 135/103/20 115/112/20 52/104/21
f 31/106/22 9/132/22 29/107/23
f 42/109/24 70/166/53 77/110/10
f 143/111/25 114/162/25 115/112/20
f 111/113/26 121/117/26 122/114/27
f 56/116/28 34/126/28 121/117/26
f 5/118/29 12/127/29 72/119/15
f 149/120/30 50/161/30 73/121/31
f 112/115/27 122/114/27 119/123/32
f 145/125/33 2/145/43 34/126/28
f 99/102/19 129/101/19 12/127/29
f 151/128/34 128/152/34 92/129/35
f 95/131/36 94/153/36 9/132/22
f 126/133/37 116/143/37 113/134/38
f 162/96/14 118/95/14 11/136/39
f 78/105/21 52/104/21 28/138/40
f 154/140/41 123/163/41 26/141/18
f 142/142/42 120/144/42 116/143/37
f 125/124/32 119/123/32 120/144/42
f 51/90/9 63/89/9 2/145/43
f 45/146/44 68/164/54 158/147/45
f 150/122/31 73/121/31 76/148/46
f 152/130/35 92/129/35 39/150/47
f 20/149/46 76/148/46 128/152/34
f 137/151/47 39/150/47 94/153/36
f 37/154/48 140/156/50 85/155/49
f 33/108/23 29/107/23 140/156/50
f 138/99/17 108/98/16 117/157/51
f 41/158/52 75/165/55 70/159/53
f 13/137/39 11/136/39 50/161/30
f 127/135/38 113/134/38 114/162/25
f 80/139/40 28/138/40 123/163/41
f 106/93/12 79/92/11 68/164/54
f 101/88/8 86/87/7 75/165/55
